<?xml version="1.0" encoding="utf-8"?>
<!-- Generator: Adobe Illustrator 28.3.0, SVG Export Plug-In . SVG Version: 6.00 Build 0)  -->
<svg version="1.1" id="Calque_1" xmlns="http://www.w3.org/2000/svg" xmlns:xlink="http://www.w3.org/1999/xlink" x="0px" y="0px"
	 viewBox="0 0 141.73 141.73" style="enable-background:new 0 0 141.73 141.73;" xml:space="preserve">
<style type="text/css">
	.st0{fill:#FFFFFF;}
</style>
<g>
	<path class="st0" d="M20.67,19.56c33.37,0,66.7,0,100.03,0c0.12,0.42,0.16,88.73,0.04,89.56c-33.34,0-66.68,0-100.07,0
		C20.67,79.28,20.67,49.45,20.67,19.56z M68.12,104.09c0-0.28,0-0.53,0-0.78c0-15.53,0-31.05,0-46.58c0-0.25,0-0.5,0.01-0.76
		c0.08-1.21,0-2.41-0.34-3.57c-0.69-2.31-2.18-3.79-4.6-4.24c-1.6-0.29-3.12,0.03-4.6,0.63c-1.88,0.76-3.57,1.85-5.18,3.08
		c-2.72,2.08-5.13,4.49-7.38,7.06c-3.97,4.54-7.34,9.5-10.14,14.84c-2.1,4-3.87,8.15-5.2,12.47c-1.27,4.14-2.16,8.35-2.54,12.67
		c-0.1,1.12-0.17,2.24-0.23,3.36c-0.03,0.56-0.01,1.11-0.01,1.69c2.39,0,4.7,0,7.05,0c0.02-4.5,0.6-8.9,1.72-13.2
		c1.22-0.11,23.93-0.06,24.4,0.06c0,4.4,0,8.82,0,13.26C63.46,104.09,65.76,104.09,68.12,104.09z M73.2,48.09
		c0,18.7,0,37.31,0,55.99c0.27,0,0.5,0,0.73,0c3.63,0,7.25,0.02,10.88-0.01c1.35-0.01,2.71-0.07,4.05-0.19
		c3.04-0.26,5.93-1.06,8.61-2.56c1.9-1.07,3.53-2.46,4.75-4.28c2.22-3.31,2.86-7,2.29-10.88c-0.52-3.54-2.12-6.57-4.79-9
		c-1.57-1.42-3.38-2.38-5.44-2.87c-0.14-0.03-0.27-0.09-0.5-0.16c0.22-0.13,0.36-0.2,0.47-0.29c0.64-0.49,1.36-0.92,1.91-1.5
		c1.87-2,2.93-4.4,3.3-7.1c0.28-1.97,0.15-3.94-0.26-5.89c-0.77-3.68-2.67-6.56-5.97-8.46c-1.8-1.04-3.74-1.67-5.76-2.09
		c-2.53-0.53-5.1-0.67-7.67-0.7c-2-0.02-3.99,0-5.99,0C73.63,48.09,73.44,48.09,73.2,48.09z M83.01,23.59
		c-0.63,0.9-1.04,1.85-1.35,2.85c-0.6,1.94-0.83,3.92-0.72,5.95c0.17,3.02,0.98,5.83,2.53,8.42c1.58,2.64,3.75,4.62,6.57,5.85
		c2.43,1.06,4.98,1.47,7.64,1.34c2.12-0.11,4.12-0.64,6.02-1.56c1.78-0.86,3.36-1.99,4.77-3.37c1.31-1.29,2.44-2.7,3.22-4.37
		c0.21-0.45,0.4-0.92,0.42-1.45c-0.1-0.04-0.19-0.08-0.28-0.1c-1.47-0.29-2.95-0.39-4.44-0.21c-4.78,0.58-8.83,2.7-12.35,5.92
		c-0.57,0.53-1.06,1.15-1.61,1.76c0.28-1.77,0.38-3.52,0.2-5.28c-0.41-4.1-1.89-7.76-4.44-10.99c-1.26-1.59-2.75-2.94-4.52-3.96
		C84.15,24.08,83.61,23.79,83.01,23.59z"/>
	<path class="st0" d="M120.54,0c0,0.85,0,1.65,0,2.46c-0.41,0.12-98.88,0.15-99.74,0.03c0-0.81,0-1.64,0-2.49
		C54.03,0,87.25,0,120.54,0z"/>
	<path class="st0" d="M20.7,141.73c0-0.68,0-1.3,0-1.91c0.44-0.13,99.02-0.18,100.17-0.06c0,0.64,0,1.28,0,1.97
		C87.49,141.73,54.12,141.73,20.7,141.73z"/>
	<path class="st0" d="M21.64,128.43c1.56,0.04,3.05,0.06,4.54,0.12c0.36,0.02,0.73,0.13,1.06,0.26c1.49,0.62,1.93,2.26,0.96,3.55
		c-0.08,0.11-0.18,0.2-0.29,0.33c0.11,0.13,0.22,0.25,0.33,0.38c0.86,0.99,1.04,2.69-0.13,3.71c-0.39,0.34-0.84,0.55-1.35,0.62
		c-0.46,0.06-0.92,0.11-1.38,0.12c-1.05,0.02-2.09,0.01-3.14,0c-0.19,0-0.38-0.02-0.59-0.03C21.64,134.49,21.64,131.51,21.64,128.43
		z M23.54,133.62c0,0.82,0,1.56,0,2.36c0.88,0,1.73,0.09,2.57-0.06c0.82-0.14,1.17-0.69,0.99-1.51c-0.09-0.43-0.32-0.7-0.77-0.74
		c-0.15-0.01-0.3-0.06-0.46-0.06C25.11,133.61,24.34,133.62,23.54,133.62z M23.54,132.06c0.84,0,1.65,0.03,2.46-0.01
		c0.58-0.03,0.92-0.45,0.92-1c0.01-0.53-0.28-0.91-0.87-0.97c-0.71-0.07-1.43-0.06-2.14-0.08c-0.13,0-0.25,0.05-0.37,0.07
		C23.54,130.75,23.54,131.39,23.54,132.06z"/>
	<path class="st0" d="M98.46,136.2c0.32,0.34,0.59,0.63,0.9,0.97c-0.31,0.33-0.6,0.66-0.92,1.01c-0.39-0.34-0.73-0.65-1.08-0.96
		c-1.05,0.55-2.16,0.67-3.31,0.49c-1.46-0.23-2.48-1.04-3.03-2.4c-0.79-1.95-0.63-3.81,0.63-5.54c0.42-0.57,0.99-0.94,1.63-1.15
		c1.01-0.33,2.05-0.37,3.09-0.09c1.67,0.46,2.5,1.68,2.87,3.26C99.61,133.38,99.36,134.63,98.46,136.2z M96.01,134.06
		c0.45,0.26,0.63,0.72,1.1,0.87c0.59-1.22,0.61-2.42,0.06-3.61c-0.85-1.82-3.37-1.65-4.21-0.38c-0.77,1.15-0.8,3.11-0.01,4.24
		c0.65,0.92,1.92,1.25,2.98,0.74c-0.28-0.27-0.54-0.54-0.86-0.84C95.41,134.71,95.71,134.39,96.01,134.06z"/>
	<path class="st0" d="M44.08,122.52c-0.67,0-1.25,0-1.82,0c-0.12-0.43-0.15-8.23-0.03-8.97c0.14-0.01,0.29-0.04,0.44-0.04
		c1.43,0,2.87-0.01,4.3,0c0.59,0,1.16,0.08,1.66,0.43c0.11,0.08,0.23,0.16,0.31,0.26c0.75,0.86,1,2.97-0.41,3.81
		c-0.07,0.04-0.12,0.1-0.3,0.24c0.14,0.08,0.26,0.13,0.37,0.2c0.41,0.26,0.6,0.64,0.62,1.12c0.02,0.52,0.06,1.04,0.07,1.56
		c0,0.4,0.01,0.77,0.31,1.08c0.04,0.04,0.03,0.14,0.05,0.29c-0.69,0.09-1.35,0.05-2.02,0.02c-0.32-0.62-0.22-1.27-0.27-1.89
		c-0.01-0.09,0.04-0.19,0.04-0.29c0.06-0.88-0.32-1.39-1.23-1.34c-0.64,0.03-1.28,0.01-1.92,0.01c-0.04,0-0.07,0.02-0.17,0.04
		C44.08,120.18,44.08,121.32,44.08,122.52z M44.09,115.09c0,0.82,0,1.57,0,2.34c0.87,0,1.72,0,2.56,0c0.13,0,0.27-0.05,0.39-0.11
		c0.48-0.21,0.79-0.79,0.71-1.34c-0.08-0.56-0.33-0.85-0.97-0.88C45.89,115.05,45.01,115.09,44.09,115.09z"/>
	<path class="st0" d="M104.12,113.54c0.19-0.01,0.34-0.03,0.49-0.03c1.43,0,2.87,0,4.3,0c0.57,0,1.12,0.08,1.6,0.42
		c0.17,0.12,0.34,0.27,0.46,0.43c0.6,0.81,0.66,2.18,0.12,3.02c-0.21,0.32-0.47,0.61-0.7,0.91c-0.04-0.04-0.08-0.08-0.12-0.12
		c0.01,0.04,0.01,0.09,0.03,0.1c0.79,0.42,0.87,1.17,0.9,1.94c0.01,0.27,0.01,0.54,0,0.81c-0.01,0.43,0,0.85,0.32,1.2
		c0.04,0.04,0.02,0.15,0.03,0.29c-0.34,0.01-0.66,0.02-0.98,0.02c-0.33,0-0.66,0-1.06,0c-0.06-0.31-0.16-0.61-0.18-0.9
		c-0.03-0.48,0-0.96-0.01-1.44c-0.01-0.86-0.34-1.19-1.2-1.19c-0.66,0-1.32,0-1.98,0.01c-0.03,0-0.07,0.03-0.16,0.06
		c0,1.11,0,2.24,0,3.42c-0.65,0-1.23,0-1.86,0C104.12,119.53,104.12,116.58,104.12,113.54z M106,117.46c0.86,0,1.67,0.01,2.47-0.01
		c0.17,0,0.34-0.07,0.5-0.14c0.5-0.22,0.78-0.77,0.69-1.35c-0.09-0.56-0.34-0.83-0.98-0.87c-0.88-0.05-1.77-0.01-2.67-0.01
		C106,115.88,106,116.63,106,117.46z"/>
	<path class="st0" d="M79.5,134.19c-0.8,0-1.43,0-2.1,0c0-0.52,0-1,0-1.5c1.18,0,2.33,0,3.49,0c0.13,0.4,0.17,4.1,0.04,4.81
		c-0.31,0-0.64,0-1.01,0c-0.08-0.31-0.17-0.64-0.27-1.02c-0.21,0.2-0.37,0.36-0.54,0.52c-0.54,0.49-1.17,0.75-1.89,0.76
		c-0.37,0.01-0.74,0.03-1.1-0.03c-1.74-0.29-2.78-1.39-3.28-3c-0.46-1.46-0.35-2.92,0.41-4.28c0.76-1.36,1.93-2.07,3.5-2.11
		c0.68-0.02,1.36,0,2.01,0.23c1.03,0.36,1.73,1.08,2.13,2.08c0.04,0.11,0.07,0.22,0.08,0.34c0.01,0.09,0,0.19,0,0.32
		c-0.55,0-1.08,0-1.64,0c-0.04-0.07-0.1-0.15-0.14-0.23c-0.42-0.88-1.19-1.22-2.08-1.22c-0.91-0.01-1.7,0.3-2.19,1.16
		c-0.59,1.03-0.77,3.06,0.24,4.29c1.09,1.32,3.11,1.24,4-0.22C79.3,134.87,79.35,134.58,79.5,134.19z"/>
	<path class="st0" d="M47.19,133.07c-0.01,0.88-0.23,1.7-0.6,2.48c-0.7,1.43-1.89,2.12-3.43,2.2c-0.59,0.03-1.21-0.02-1.78-0.15
		c-1.07-0.24-1.86-0.9-2.4-1.87c-0.99-1.78-0.89-4.5,0.54-6.11c0.4-0.45,0.87-0.77,1.42-0.98c1.09-0.4,2.2-0.42,3.31-0.1
		c1.52,0.43,2.31,1.55,2.72,2.99C47.09,132.03,47.11,132.56,47.19,133.07z M43.09,136.15c0.6-0.01,1.38-0.37,1.82-1.26
		c0.6-1.22,0.6-2.46-0.01-3.68c-0.46-0.91-1.27-1.27-2.25-1.24c-0.95,0.03-1.7,0.43-2.13,1.34c-0.5,1.05-0.53,2.13-0.14,3.21
		C40.78,135.6,41.61,136.15,43.09,136.15z"/>
	<path class="st0" d="M39.17,122.52c-0.37,0-0.71,0-1.08,0c-0.08-0.31-0.16-0.61-0.25-0.96c-0.1,0.08-0.16,0.12-0.21,0.17
		c-1.1,1.35-3.21,1.34-4.54,0.68c-0.72-0.36-1.3-0.95-1.66-1.66c-1-1.99-0.95-3.96,0.38-5.81c0.72-1,1.75-1.52,2.99-1.52
		c0.65,0,1.33,0.02,1.95,0.18c1.16,0.3,1.94,1.07,2.34,2.22c0.03,0.09,0.06,0.18,0.07,0.28c0.01,0.07,0,0.15,0,0.26
		c-0.55,0-1.09,0-1.67,0c-0.24-0.5-0.56-0.97-1.14-1.21c-1.2-0.5-2.97-0.19-3.49,1.41c-0.4,1.23-0.46,2.45,0.3,3.56
		c1.28,1.89,3.44,1.31,4.19-0.02c0.13-0.23,0.19-0.49,0.32-0.83c-0.75,0-1.42,0-2.11,0c0-0.53,0-0.99,0-1.45
		c0.39-0.12,2.77-0.16,3.6-0.04C39.17,119.33,39.17,120.91,39.17,122.52z"/>
	<path class="st0" d="M64.84,137.77c-1.46,0-2.68-0.46-3.54-1.72c-1.31-1.93-1.09-4.98,0.5-6.57c0.71-0.71,1.58-1.04,2.55-1.11
		c0.53-0.04,1.09,0.01,1.62,0.09c1.07,0.17,1.9,0.73,2.49,1.65c1.14,1.77,1.14,4.17-0.01,5.94c-0.76,1.17-1.89,1.67-3.24,1.73
		C65.07,137.77,64.96,137.77,64.84,137.77z M67.47,132.98c-0.01-0.58-0.14-1.2-0.45-1.78c-0.83-1.56-3.21-1.71-4.17-0.22
		c-0.75,1.15-0.77,2.4-0.27,3.66c0.39,0.96,1.13,1.45,2.15,1.5c1.03,0.04,1.85-0.34,2.33-1.31
		C67.35,134.27,67.47,133.67,67.47,132.98z"/>
	<path class="st0" d="M120.51,117.12c0,0.55,0,1,0,1.52c-1.45,0.05-2.89-0.01-4.37,0.03c0,0.78,0,1.52,0,2.32c1.64,0,3.26,0,4.92,0
		c0,0.53,0,1,0,1.51c-2.27,0-4.52,0-6.82,0c0-2.98,0-5.94,0-8.9c0.41-0.12,5.62-0.16,6.58-0.05c0,0.47,0,0.94,0,1.47
		c-1.55,0-3.09,0-4.7,0c-0.05,0.7-0.01,1.35-0.03,2.08c0.76,0,1.49,0.01,2.22,0.01C119.03,117.13,119.74,117.12,120.51,117.12z"/>
	<path class="st0" d="M116.47,133.61c0,0.84,0,1.57,0,2.37c1.62,0,3.22,0,4.87,0c0,0.53,0,1.01,0,1.52c-2.24,0-4.47,0-6.74,0
		c0-3,0-5.98,0-8.99c2.21,0,4.39,0,6.6,0c0,0.49,0,0.95,0,1.49c-1.56,0.05-3.11-0.01-4.7,0.03c0,0.69,0,1.34,0,2.05
		c1.42,0,2.82,0,4.27,0c0,0.53,0,1,0,1.54C119.34,133.61,117.93,133.61,116.47,133.61z"/>
	<path class="st0" d="M103.11,128.5c0.61,0,1.18,0,1.83,0c0.01,0.2,0.03,0.4,0.03,0.6c0,1.77,0,3.53,0,5.3c0,0.12,0,0.23,0,0.35
		c0.02,0.72,0.3,1.15,1,1.3c0.46,0.1,0.97,0.11,1.43,0.02c0.71-0.14,1.03-0.61,1.03-1.34c0-1.84,0-3.69,0-5.53c0-0.21,0-0.42,0-0.71
		c0.61-0.04,1.2-0.03,1.86,0c0.01,0.22,0.03,0.43,0.03,0.63c0,1.9-0.03,3.8,0.01,5.7c0.03,1.24-0.78,2.21-1.78,2.62
		c-1.14,0.47-2.32,0.49-3.46,0.08c-1.06-0.38-2.05-1.44-2.03-2.83c0.04-1.86,0.01-3.72,0.01-5.59
		C103.08,128.91,103.1,128.72,103.11,128.5z"/>
	<path class="st0" d="M26.99,122.52c-0.21-0.58-0.42-1.15-0.63-1.74c-1.13,0-2.23,0-3.39,0c-0.21,0.56-0.42,1.13-0.64,1.74
		c-0.62,0-1.23,0-1.93,0c1.07-3.02,2.13-6,3.19-8.98c0.76,0,1.47,0,2.21,0c1.04,2.99,2.08,5.96,3.13,8.98
		C28.25,122.52,27.64,122.52,26.99,122.52z M25.9,119.19c-0.41-1.17-0.79-2.26-1.21-3.47c-0.4,1.23-0.75,2.33-1.11,3.47
		C24.37,119.19,25.08,119.19,25.9,119.19z"/>
	<path class="st0" d="M67,113.54c0.65,0,1.22,0,1.86,0c0.01,0.22,0.03,0.42,0.03,0.63c0,1.71,0,3.41,0,5.12c0,0.14-0.01,0.27,0,0.41
		c0.06,0.95,0.55,1.45,1.5,1.5c0.15,0.01,0.31,0.01,0.46,0c1.01-0.04,1.56-0.6,1.57-1.62c0.01-1.78,0-3.57,0-5.35
		c0-0.21,0-0.42,0-0.67c0.64,0,1.22,0,1.89,0c0,0.2,0,0.38,0,0.57c0,1.82-0.01,3.65,0,5.47c0.02,1.76-1,2.8-2.6,3.13
		c-0.74,0.15-1.49,0.13-2.24-0.04c-1.48-0.34-2.48-1.57-2.49-3.08c0-1.82,0-3.65,0-5.47C67,113.96,67,113.79,67,113.54z"/>
	<path class="st0" d="M99.2,113.54c0.67,0,1.24,0,1.89,0c0,0.23,0,0.44,0,0.65c0,1.86-0.03,3.72,0.01,5.58
		c0.03,1.35-0.72,2.3-1.85,2.74c-1.12,0.44-2.29,0.46-3.4,0.05c-1.03-0.37-2.05-1.46-2.02-2.84c0.05-1.84,0.01-3.68,0.01-5.53
		c0-0.19,0-0.38,0-0.65c0.62-0.05,1.21-0.03,1.87-0.02c0.01,0.23,0.02,0.44,0.02,0.64c0,1.82,0.02,3.65-0.01,5.47
		c-0.01,0.92,0.46,1.52,1.53,1.56c0.27,0.01,0.54-0.01,0.8-0.07c0.82-0.18,1.14-0.59,1.14-1.43c0-1.53,0-3.06,0-4.6
		C99.2,114.6,99.2,114.1,99.2,113.54z"/>
	<path class="st0" d="M53.25,13.74c0,1.23,0,2.39,0,3.58c-0.5,0.13-0.98,0.06-1.44,0.05c-0.11-0.43-0.15-8.26-0.05-9.16
		c0.14-0.01,0.29-0.04,0.44-0.04c1.12,0,2.25-0.01,3.37,0c1.25,0.01,1.94,0.6,2.12,1.85c0.05,0.32,0.1,0.66,0.07,0.97
		c-0.13,1.06-0.17,1.12-1.01,1.99c0.1,0.1,0.19,0.22,0.31,0.31c0.29,0.24,0.41,0.56,0.43,0.92c0.03,0.58,0.06,1.16,0.08,1.74
		c0.01,0.39-0.01,0.78,0.24,1.11c0.04,0.05,0.02,0.15,0.03,0.26c-0.55,0.13-1.07,0.06-1.61,0.04c-0.25-0.42-0.23-0.87-0.26-1.3
		c-0.03-0.4,0.01-0.81,0.03-1.22c0.04-0.64-0.29-1.06-0.92-1.09C54.49,13.71,53.91,13.74,53.25,13.74z M53.28,12.19
		c0.7,0,1.34,0.01,1.97-0.01c0.42-0.01,0.72-0.25,0.9-0.63c0.15-0.32,0.18-0.66,0.11-1.02c-0.1-0.51-0.35-0.75-0.86-0.76
		c-0.58-0.02-1.16-0.01-1.74,0c-0.13,0-0.25,0.03-0.38,0.05C53.28,10.62,53.28,11.36,53.28,12.19z"/>
	<path class="st0" d="M62.74,119.48c0.58,0,1.16,0,1.77,0c-0.07,1.04-0.45,1.91-1.29,2.49c-1.19,0.83-2.53,1.05-3.92,0.69
		c-1.35-0.35-2.19-1.31-2.59-2.6c-0.5-1.61-0.45-3.2,0.36-4.73c0.5-0.95,1.26-1.58,2.3-1.8c1.26-0.27,2.5-0.26,3.64,0.47
		c0.91,0.59,1.51,1.43,1.5,2.51c-0.58,0.11-1.17,0.03-1.77,0.05c-0.18-0.64-0.47-1.16-1.1-1.43c-1.03-0.44-2.44-0.19-2.96,1.04
		c-0.57,1.36-0.66,2.74,0.13,4.07c0.46,0.78,1.17,1.09,2.07,0.97c0.9-0.12,1.57-0.53,1.78-1.48
		C62.69,119.65,62.71,119.58,62.74,119.48z"/>
	<path class="st0" d="M37.55,8.19c1.78,0,3.54,0,5.33,0c0.11,0.5,0.04,1,0.04,1.55c-1.28,0-2.53,0-3.86,0
		c-0.03,0.72-0.01,1.39-0.01,2.13c1.2,0,2.37,0,3.57,0c0,0.54,0,1.02,0,1.55c-1.18,0-2.34,0-3.53,0c0,0.81,0,1.55,0,2.38
		c1.32,0,2.65,0,4,0c0,0.55,0,1.03,0,1.55c-1.85,0-3.68,0-5.55,0C37.55,14.29,37.55,11.26,37.55,8.19z"/>
	<path class="st0" d="M119.37,8.2c0,0.53,0,1.02,0,1.57c-1.29,0-2.54,0-3.82,0c0,0.71,0,1.36,0,2.09c1.16,0,2.33,0,3.54,0
		c0,0.54,0,1.02,0,1.55c-1.17,0-2.32,0-3.56,0c-0.02,0.8-0.01,1.55,0,2.37c1.35,0,2.68,0,4.04,0c0,0.55,0,1.03,0,1.5
		c-0.42,0.12-4.68,0.16-5.54,0.04c0-3.03,0-6.06,0-9.14C115.79,8.2,117.54,8.2,119.37,8.2z"/>
	<path class="st0" d="M28.99,11.27c-0.55,0-0.97,0-1.43,0c-0.07-0.2-0.13-0.4-0.21-0.59c-0.26-0.63-0.72-0.98-1.41-1.05
		c-0.62-0.06-1.09,0.22-1.43,0.69c-0.17,0.23-0.31,0.5-0.39,0.78c-0.31,1.08-0.37,2.17-0.08,3.26c0.12,0.47,0.34,0.9,0.7,1.25
		c0.77,0.75,2.16,0.46,2.56-0.55c0.11-0.27,0.17-0.55,0.25-0.83c0.46,0,0.9,0,1.36,0c0.12,0.67-0.11,1.25-0.39,1.79
		c-0.6,1.16-1.65,1.61-2.88,1.64c-1.2,0.03-2.07-0.61-2.59-1.66c-0.28-0.57-0.5-1.19-0.59-1.81c-0.22-1.47-0.17-2.94,0.48-4.33
		c0.61-1.31,1.74-1.96,3.25-1.84c1.22,0.1,2.32,1.03,2.65,2.27C28.94,10.6,28.95,10.91,28.99,11.27z"/>
	<path class="st0" d="M87.1,115.05c-0.97,0-1.84,0-2.74,0c-0.11-0.51-0.06-0.98-0.03-1.5c2.43,0,4.84,0,7.29,0c0,0.48,0,0.95,0,1.47
		c-0.85,0-1.7,0-2.62,0c-0.03,2.51,0,4.98-0.02,7.48c-0.64,0-1.23,0-1.88,0C87.1,120.04,87.1,117.59,87.1,115.05z"/>
	<path class="st0" d="M91.73,9.76c0,0.75,0,1.4,0,2.11c1.06,0,2.1,0,3.15,0c0.14,0.52,0.07,1,0.05,1.54c-1.05,0-2.09,0-3.19,0
		c-0.11,1.34,0.01,2.63-0.08,3.95c-0.5,0-0.97,0-1.48,0c0-3.06,0-6.09,0-9.16c1.74,0,3.45,0,5.2,0c0,0.52,0,1.02,0,1.56
		C94.18,9.76,92.98,9.76,91.73,9.76z"/>
	<path class="st0" d="M52.83,136c1.5,0,2.91,0,4.35,0c0,0.52,0,0.98,0,1.52c-2.04,0.02-4.09,0-6.13,0.01
		c-0.14-0.42-0.17-8.25-0.04-9.07c0.27,0,0.56,0,0.84,0c0.29,0,0.58,0,0.95,0c0.06,0.85,0.02,1.67,0.03,2.5c0.01,0.82,0,1.63,0,2.45
		C52.83,134.24,52.83,135.07,52.83,136z"/>
	<path class="st0" d="M77.26,122.52c0-3.01,0-5.96,0-8.96c0.6-0.08,1.19-0.04,1.86-0.03c0.03,0.85,0.01,1.68,0.01,2.5
		c0,0.81,0,1.63,0,2.44c0,0.83,0,1.66,0,2.54c1.49,0,2.92,0,4.38,0c0,0.53,0,1,0,1.51C81.43,122.52,79.37,122.52,77.26,122.52z"/>
	<path class="st0" d="M69.59,17.36c-0.53,0-0.99,0-1.53,0c0-0.62,0-1.23-0.01-1.84c0-0.64,0-1.28,0-1.92c0-0.62,0-1.24,0-1.86
		c0-0.62,0-1.24,0-1.93c-0.76,0-1.5,0-2.29,0c0-0.56,0-1.06,0-1.64c1.96-0.01,3.93,0,5.97,0c0.05,0.53,0.04,1.04,0,1.6
		c-0.7,0-1.37,0-2.13,0C69.58,12.3,69.6,14.79,69.59,17.36z"/>
	<path class="st0" d="M86.82,137.5c-0.57,0-1.14,0-1.71,0c-0.13-0.41-0.16-8.31-0.03-9c0.57,0,1.14,0,1.72,0
		C86.91,128.9,86.94,136.79,86.82,137.5z"/>
	<path class="st0" d="M32.82,128.49c0.63,0,1.21,0,1.82,0c0,3.01,0,5.98,0,9c-0.6,0-1.19,0-1.82,0
		C32.82,134.5,32.82,131.52,32.82,128.49z"/>
	<path class="st0" d="M52.14,113.55c0.14-0.02,0.26-0.04,0.37-0.04c0.46,0,0.93,0,1.38,0c0.13,0.44,0.17,8.16,0.05,9
		c-0.58,0-1.17,0-1.8,0C52.14,119.54,52.14,116.58,52.14,113.55z"/>
	<path class="st0" d="M79.91,8.16c0.46,0,0.84,0,1.23,0c0.07,0,0.15,0.02,0.25,0.04c0,3.05,0,6.08,0,9.15c-0.5,0-0.97,0-1.48,0
		C79.91,14.29,79.91,11.26,79.91,8.16z"/>
	<path class="st0" d="M105.12,17.36c-0.49,0-0.94,0-1.4,0c-0.13-0.42-0.15-8.53-0.02-9.17c0.45,0,0.91,0,1.37,0
		C105.19,8.61,105.24,15.95,105.12,17.36z"/>
	<path class="st0" d="M116.35,7.42c0.24-0.61,0.47-1.2,0.7-1.8c0.41,0,0.79,0,1.29,0c-0.44,0.64-0.82,1.22-1.24,1.76
		C116.92,7.59,116.63,7.5,116.35,7.42z"/>
	<path class="st0" d="M61.06,83.86c-7.37,0-14.69,0-22.1,0c0.08-0.21,0.14-0.39,0.2-0.56c0.97-2.41,2.08-4.75,3.33-7.03
		c2.1-3.81,4.52-7.41,7.27-10.78c1.58-1.94,3.26-3.79,5.07-5.51c1.63-1.55,3.33-3.02,5.29-4.15c0.28-0.16,0.57-0.29,0.93-0.47
		C61.06,64.91,61.06,74.35,61.06,83.86z"/>
	<path class="st0" d="M80.01,97.83c0-6.47,0-12.87,0-19.35c0.19-0.01,0.38-0.03,0.56-0.03c1.8,0.01,3.61-0.03,5.41,0.06
		c2.33,0.12,4.61,0.52,6.76,1.48c1.57,0.71,2.89,1.71,3.85,3.16c0.73,1.11,1.13,2.33,1.24,3.65c0.13,1.57,0.06,3.13-0.44,4.65
		c-0.69,2.12-2.07,3.64-4,4.69c-1.44,0.79-3.01,1.2-4.63,1.44c-1.48,0.22-2.96,0.27-4.46,0.27c-1.22,0-2.44,0-3.66,0
		C80.45,97.86,80.26,97.85,80.01,97.83z"/>
	<path class="st0" d="M80.03,72.9c0-6.21,0-12.34,0-18.45c0.05-0.05,0.06-0.07,0.08-0.07c2.59-0.07,5.18-0.11,7.71,0.65
		c2.86,0.87,4.6,2.74,5.2,5.67c0.42,2.06,0.4,4.12-0.1,6.15c-0.69,2.78-2.5,4.52-5.22,5.32c-1.47,0.44-2.99,0.61-4.52,0.65
		c-0.83,0.02-1.66,0.05-2.49,0.07C80.48,72.9,80.29,72.9,80.03,72.9z"/>
</g>
</svg>
