<?xml version="1.0" encoding="utf-8"?>
<!-- Generator: Adobe Illustrator 28.3.0, SVG Export Plug-In . SVG Version: 6.00 Build 0)  -->
<svg version="1.1" id="Calque_1" xmlns="http://www.w3.org/2000/svg" xmlns:xlink="http://www.w3.org/1999/xlink" x="0px" y="0px"
	 viewBox="0 0 201.3 172.9" style="enable-background:new 0 0 201.3 172.9;" xml:space="preserve">
<style type="text/css">
	.st0{fill:#7A361B;}
	.st1{fill:#741F58;}
	.st2{fill:#E33226;}
	.st3{fill:#69962F;}
	.st4{fill:#E64F2D;}
	.st5{fill:#55752B;}
	.st6{fill:#55742B;}
	.st7{fill:#68942F;}
	.st8{font-family:'Macho-Bold';}
	.st9{font-size:21.4149px;}
	.st10{font-family:'Macho-Regular';}
	.st11{font-size:16.0612px;}
</style>
<g>
	<g>
		<path class="st0" d="M99.9,127.2c-10.4-0.4-3.4-0.1-10.4-0.4c-4.1-0.5-8.1-0.8-12.1-1.7c-6-1.4-11.9-3.2-17-7
			c-2.5-1.8-4.1-4.2-5.3-7.1c-2.3-5.8-4.2-11.8-6-17.8c-1.1-3.7-2.2-7.5-3.1-11.3c-0.8-3.2-1.3-6.4-1.9-9.6
			c-0.4-2.3,0.6-4.5,2.7-5.6c0.9-0.5,1.7-0.2,2.2,0.5c1.9,2.7,4.8,3.7,7.6,5c3.2,1.4,6.5,2.2,9.9,2.9c2.6,0.5,5.3,0.9,8,1.4
			c2.6,0.4,3.7,0.6,7.7,1c1.2,0.1,0,0,1.1,0.1c8.7,0.6,17.4,1,26.1,0.5c4.9-0.3,9.9-0.4,14.7-1.2c5.2-0.9,10.5-1.5,15.5-3.1
			c4-1.2,8.1-2.5,11.4-5.3c0.3-0.2,0.6-0.5,0.8-0.8c1.4-1.7,2.9-0.9,3.6-0.3c1.7,1.4,2,3.2,1.6,5.3c-0.4,1.8-0.6,3.6-1,5.4
			c-0.5,2.1-1,4.2-1.6,6.3c-0.9,3.3-1.7,6.7-2.7,10c-1.3,4.1-2.4,8.3-4,12.3c-0.9,2.3-1.8,4.5-2.8,6.7c-0.8,1.7-2.2,3.2-3.7,4.4
			c-3,2.2-6.3,3.9-9.8,5.1c-2.4,0.9-4.8,1.5-7.3,2.1c-3.5,0.7-7.1,1.2-10.6,1.5c-3.1,0.3-6.2,0.3-9.2,0.4
			C103.2,127.1,104.4,127,99.9,127.2z M150.7,85.9c0.5-2,0.3-1.2,0.5-2c0-0.3,0-0.3,0.1-0.5c0.3-2.4,0.1-1.3,0.3-2.2
			c0-0.3-0.3-0.5-0.6-0.3c-0.8,0.3-0.1,0-0.8,0.3c-0.9,0.4-7.9,2.6-12,3.4c-2.6,0.5-2.6,0.6-2.8,3.2c-0.1,1.1-0.2,2.3-0.4,3.4
			c-0.2,1.4-1,2.1-2.5,1.9c-1.5-0.2-1-1-0.9-2.1c0.3-2.6,0.3-2.6,0.5-3.9c0.1-0.8-0.2-1.3-1.2-1.2c-2.2,0.2-2.2,0.2-4.8,0.6
			c-3,0.3-6.2,0.6-9.3,1c-2.6,0.3-2.9,0.4-3,3c0,0.3,0,0.6,0,1c-0.4,5.5-0.5,8.4-0.8,13.1c-0.1,1-0.2,1.9-0.4,2.9
			c-0.3,1.4-1.4,1.1-2.3,1.1c-1,0-0.9-0.8-0.9-1.5c0.1-1.3,0.2-2.6,0.4-3.9c0.4-4.5,0.9-9.1,1-13.7c0-1-0.3-1.4-1.3-1.4
			c-5.7,0-11.4,0-17.1,0c-1.1,0-1.4,0.5-1.3,1.4c0.1,1.5,0,3,0.1,4.4c0.1,1.3-0.3,1.7-1.6,1.7c-4.4-0.1-8.7-0.6-13-1.3
			c-3.2-0.5-6.4-0.9-9.5-1.7c-2.4-0.5-5.4-1.9-4.1-0.6c3.1,2.6,6.5,3.1,9.9,3.9c2.4,0.6,4.9,0.8,7.4,1.1c3.4,0.4,6.9,0.9,10.3,0.9
			c5.3,0.1,10.6,0.1,15.8,0.1c0.5,0,1-0.2,1.4,0.4c0.8,1.5-0.2,3.2-1.8,3.2c-4,0-8.1,0-12.1,0c-2,0-2.1,0.5-1.9,2.6
			c0.1,1.7,0.1,1.7,0.3,2.7c0.2,1.1-0.2,1.7-1.5,1.6c-4.1-0.3-8.1-0.7-12.1-1.2c-2.7-0.4-5.4-0.9-8.1-1.6c-2.7-0.8-7.4-2.3-7.4-1.8
			c0,0.3,0.2,0.6,1.3,1.2c4.6,2.5,9.6,3.8,14.8,4.7c2,0.3,4,0.4,6,0.7c5.8,0.9,11.6,0.7,17.4,0.8c7.1,0.1,14.2-0.7,21.2-1.6
			c0.7,0,1.7-0.3,1.8,0c0,0.8,0.1,1.1,0,1.9c-0.1,0.7-0.4,1-1.1,1.1c-1.6,0.4-3.3,0.5-4.9,0.7c-5.1,0.6-10.2,1.3-15.3,1.2
			c-3-0.1-6,0-9,0c-1.5,0-2,0.5-1.6,2c0.3,1.4,0.3,1.4,1,3.5c0.2,0.6-0.2,1.1-0.8,1.1c-3.7-0.2-5.7-0.4-8.9-0.9
			c-4.4-0.8-8.7-1.8-13-3c-1.6-0.4-3-1.2-3.4-0.9c-0.5,0.4,0.4,0.8,1.9,1.8c5.1,2.9,11,4.1,16.8,5c2.3,0.3,4.6,0.3,6.9,0.5
			c3.6,0.4,7.2,0.1,10.8,0.1c0.8,0,1.3-0.4,1.5-1.2c0.3-1.1,0.7-2.1,1-3.2c0.5-2.3,0.9-2.5,3-2.3c0.8,0.1,1.1,0.3,0.8,1.1
			c-0.4,1.2-0.6,2.4-0.9,3.6c-0.3,1,0.1,1.4,1.1,1.4c2.1,0,4.1-0.3,6.2-0.6c2-0.3,3.6-0.6,5.7-1c1.2-0.4,1.8-0.9,2.3-2
			c2.1-5.2,3.1-10.7,4.4-16.1c0.5-2,0.6-2.2,2.6-2.1c0.9,0,1.1,0.2,1,1.2c-0.3,1.6-0.5,2.3-0.8,3.8c-1,4-2.2,8.1-3.4,12.1
			c-0.3,0.9,0,1.3,0.9,1c0.8-0.2,1.6-0.4,2.4-0.8c4.2-2.1,8.7-3.8,10.2-9c0.1-0.4,0.2-1,0.2-1.3c-0.4-0.3-0.9,0-1.4,0.1
			c-2.1,0.6-4.3,1.3-6.5,1.9c-0.3,0.1-0.5,0-0.6-0.4c-0.4-1.5,0.6-3.1,2.2-3.6c2.9-1,4.2-1.3,6.3-2.1c1-0.4,2.1-0.8,2.6-1.9
			c0.9-1.9,1.3-3.9,2-5.9c0.3-1-0.2-1.5-1.3-1.2c-1.5,0.4-3,0.9-4.5,1.3c-3.3,1-6.2,1.5-9.4,2.2c-2.6,0.6-5.3,0.9-7.9,1.2
			c-2.5,0.3-4.9,0.5-7.4,0.7c-0.4,0-1,0.1-1.2-0.4c-0.5-0.8,0.5-3.1,1.4-3.1c1.7-0.1,3.6-0.3,5.2-0.5c5-0.7,9.9-1.5,14.8-2.5
			c3.7-0.8,7.3-1.9,10.8-3.3c0.6-0.2,1.2-0.5,1.4-1.2C149.9,88.7,150.3,87.3,150.7,85.9z"/>
		<path class="st1" d="M106.7,59.8c-0.2,0-0.3,0-0.5,0c-1.1-0.9-6.7-0.9-7.8,0c-0.2,0-0.3,0-0.5,0c-1.2-0.4-2.3,0.4-3.6,0.5
			c0.3-1,1-1.6,1.5-2.3c0.5-0.7,1.3-1.3,1.3-2.3c2.7-3.7,5.4-7.4,8-11.1c0.5-0.1,0.7-0.5,1-0.9c1.2-1.8,2.5-3.7,3.7-5.5
			c0.5-0.8,1.2-1.3,2.1-1.7c2.5-1,5-1.5,7.6-2.1c2.2-0.6,2.3-0.5,3.4,1.6c0.9,1.7,1.5,3.7,3,5c0,0,0,0,0,0c0.3,1.2,1.5,1.5,3.1,0.9
			c1.3-0.5,2.7-0.9,4-1.4c0.8-0.3,1.4-0.1,1.7,0.8c0.4,1.2,0.9,2.3,0.9,3.6c0.1,2.8-1,5.4-2.2,7.8c-1.8,3.4-3.8,6.6-5.7,10
			c-0.8,1.3-1.2,1.5-2.4,0.5c-1.5-1.2-3.1-2.2-5-3c-2.6-1-5.3-1-8-0.7c-0.8,0.1-1.9,0.3-2.4,1.2c-0.2,0-0.5,0-0.7,0
			C108.6,59.6,107.6,59.7,106.7,59.8z"/>
		<path class="st2" d="M65.6,59.2c1.2-1.7,2.9-2,4.8-1.9c1,0.1,2,0.2,3,0.3c2.1,0,3.2-1.1,2.9-3.2c0-0.1-0.1-0.3-0.1-0.4
			c-0.4-3-0.4-3,2.5-3.9c1.1-0.3,1.4-1.3,1.5-2.2c0.1-1.3-0.5-2.3-1.7-2.7c-2-0.8-3.9-1.7-6-2c-0.6-0.1-1.2-0.4-1.3-0.9
			c0-0.4,0.6-0.7,1.1-0.9c2.8-1.5,5.7-2.3,8.9-1.9c4.2,0.5,7.5,2.6,10.1,5.8c1,1.3,2,2.7,2.6,4.3c1.2,3.2,0.3,5.9-1.6,8.4
			c-2.5,3.2-5.1,6.4-7.8,9.5c-1.5,1.7-2.8,3.4-4.9,4.4c-2.2,1-4.4,1.2-6.8,0.6c-2.5-0.5-5-1-7.4-1.5c-1.3-0.3,0.1,0-2.3-0.6
			c-1.6-0.5-1.3-0.6-1.7-0.7c-1.6-0.5-3.1-1.1-4-2.9c-2.2-4.6-0.6-8.6,1.7-12.5c0.1-0.2,0.3-0.6,0.6-0.4c0.1,0.1,0.2,0.4,0.2,0.6
			c0.1,1.5-0.1,3,0.6,4.5c0.5,1.1,1.4,1.7,2.6,1.7C64.3,60.7,65.4,60.6,65.6,59.2z"/>
		<path class="st3" d="M124,21.5c0.3-0.1,0.5-0.3,0.8-0.4c1.5-0.8,1.1-0.6,3.4-1.5c1.4-0.3,2.8-0.7,4.2-1c0.9-0.2,1.3-0.9,1.6-1.6
			c2-3.7,3.8-7.6,5.1-11.6c0.2-0.6,0.5-1.3,1.2-1.4c0.8,0,1.4,0.5,1.7,1.2c0.4,0.9,0.9,1.8,1.2,2.8c0.7,1.9-0.7,3.3-1.5,4.8
			c-1.2,2.1-2.4,4.1-3.5,6.2c-0.5,1-0.5,1.9,0.1,2.9c2.2,3.4,2.9,7.2,3.3,11.1c0.3,3.4,0.2,6.7-0.1,10.1c0,0.4,0.1,0.9-0.3,1.1
			c-0.5,0.2-0.9,0-1.3-0.3c-1.6-1.2-2.3-2.9-2.7-4.7c-0.6-2.9-2.1-2.9-4.1-2c-1.2,0.5-2.4,1.1-3.7,1.5c-1,0.3-1.9,0.3-2.4-0.9
			c-0.7-1.6-1.6-3.2-2.4-4.8c-1.2-2.3-2.3-2.6-4.9-2c-3,0.7-5.9,1.8-8.9,2.4c-0.8,0.2-1.6,0.1-2.5,0.1c-0.5,0-0.9-0.1-1-0.5
			c-0.1-0.4,0.3-0.7,0.6-1c2.1-1.5,4.2-3.1,6.4-4.6c2.7-1.8,5.3-3.8,8.2-5.3"/>
		<path class="st4" d="M77.3,33.2c0-2.9,2.1-4.6,4.8-3.7c3,0.9,5.3-1.8,4.8-5c-0.2-1.5,0.2-2.2,1.4-2.8c2.9-1.4,6.1-1,8.6,1.1
			c2.6,2.2,4.2,5.2,5.5,8.2c0.9,1.9,1.8,3.9,2.8,5.8c0.5,1.1,0.6,2.1-0.1,3.2c-2.4,3.5-4.8,7-7.2,10.5c-0.2,0.3-0.3,0.8-0.9,0.7
			c-0.3-0.1-0.4-0.4-0.5-0.6c-0.3-3.5-2.5-6-4.8-8.3c-3-3.1-6.7-5.1-11-5.1C78,37.1,77.4,35.7,77.3,33.2z"/>
		<path class="st5" d="M105.6,67.2c1.6-0.8,2.7-2,3.8-3.3c2.2-2.5,5.2-2.7,8.2-2c2.5,0.6,4.8,1.8,6.7,3.6c1.1,1.1,1.8,2.5,2.2,3.9
			c0.6,1.9-0.9,3.7-3.3,3.8c-3.6,0.2-7.3,0.6-10.9,0.9c-5.3,0.4-10.6,0.2-16,0.3c-3.4,0.1-6.7-0.4-10.1-0.6
			c-1.7-0.1-2.3-1.4-1.4-2.8c3-4.8,7.2-7.8,12.8-8.9c2-0.4,3.9-0.4,5.9-0.4c0.4,0,0.8,0,1.1,0.1c0.7,0.2,1.4,0.2,1.7,1.1
			c0.2,0.9-0.5,1.3-1,1.8c-0.5,0.4-0.9,0.8-1.2,1c-0.2,0.2-0.5,0.3-0.5,0.3c-0.2,0.2-0.4,0.3-0.7,0.5c-0.3,0.2-0.6,0.4-1,0.6
			c-0.2,0-1.3-0.2-1.4,0.4c0,0.2-0.3,0.4-0.3,0.6c0,0.3,0.3,0.4,0.6,0.4C102.5,68.6,104.2,68.4,105.6,67.2z"/>
		<path class="st6" d="M69.2,15.6c1.5,1.1,2.8,2.6,4.7,3.2c0.3,0.1,0.6,0.5,0.9,0.1c0.2-0.2,0.2-0.6,0-0.8c-1.8-2.5-2-5.5-3.1-8.2
			c-0.7-1.8-2-3.2-3.6-4.3c-0.6-0.4-1.3-0.9-1.2-1.7c0.1-0.9,0.8-1.1,1.5-1.4c1.3-0.5,2.6-1.6,4-0.6c2.2,1.6,4.5,3.2,5,6.3
			c0.3,1.8,1.3,3.3,2.1,5c0.8,1.7,1.4,3.4,1.7,5.2c0.1,0.6,0.3,1.1,0.7,1.4c1.3,1.1,2,2.5,2.7,4c0.3,0.7,0.3,1.5,0.1,2.2
			c-0.4,1.3-1.1,1.5-2.4,0.9c-0.4-0.2-0.8-0.4-1-0.7c-2-1.9-4.3-1.9-6.7-1.1c-1.2,0.4-2-0.4-2.6-1.2c-1-1.6-2.3-2.3-4.3-2.3
			c-1.7,0-3-1.3-4.7-1.6c-1.3-0.3-2.8-0.1-4-0.9c-0.1-0.8-1.1-1.1-1.3-1.9c-0.3-1.4-1.3-2.4-2.4-3.3c-1-0.8-1.9-1.8-2.8-2.7
			c-0.4-0.4-0.7-0.9,0-1.2c0.6-0.3,1.3-0.8,2.1-0.6c1.8,0.5,3.8,0.7,5.6,1.4c2.3,0.8,4.7,1.5,7.1,2.2c0,0,0,0,0,0
			C67.6,14.2,68.2,15.1,69.2,15.6z"/>
		<path class="st7" d="M143.8,58.2c1.4-1,1.4-1,3.4-2.1c1.1-0.4,2.3-0.8,3.4-1.3c0.9-0.4,1.8-0.5,2.4,0.2c0.6,0.8,0.5,1.8,0.1,2.6
			c-0.5,1-1.1,1.8-2.2,2.3c-2.5,1.2-4.4,3.2-6.2,5.2c-1,1.1-1.9,2.2-3,3.2c-1.3,1-1,0.7-2,1.3c-1.9,0.9-3.9,1.2-5.9,1.7
			c-3,0.7-4.9-1.2-4.4-4.3c0.7-4.3,2.7-7.8,5.9-10.7c4.8-4.4,9.7-8.5,15.1-12.1c1-0.7,2.1-1.3,3.2-1.9c1.3-0.7,3.7,0.4,4,1.8
			c0.2,0.8-0.5,1-1,1.3c-1.1,0.7-2.2,1.3-3.4,1.9c-4.2,2.2-7.7,5.3-10.9,8.8c-1.4,1.3-2.2,2.4-3.1,3.8c-0.3,0.4-0.6,0.8-0.6,1.4
			c0,0.7,0.3,1,0.9,0.5"/>
		<path class="st7" d="M58.8,43.3c2.6,0,5.2,0.2,7.7,1.5c0.6,0.3,1.2,0.3,1.8,0.2c3.2-0.4,6.1,0.9,8.9,1.9c0.3,0.1,0.5,0.2,0.5,0.6
			c0,0.3-0.3,0.5-0.6,0.5c-0.8,0.1-1.5,0.5-2.1,1c-1.6,1.3-1.6,3-1.1,4.8c0.3,1.3-0.1,1.8-1.3,1.5c-3.3-0.9-6.2-0.5-8.5,2.2
			c-0.8,0.9-1.2,0.1-1.3-0.5c-0.1-2.1-0.4-4.1,0.2-6.2c0.7-2.2-0.1-3.2-2.4-3.3c-3.2-0.1-6.1,1-9,2c-1.2,0.4-1.8,0.1-2.1-1.1
			c-0.6-2.7,0.4-3.9,3.4-4.5c0.9-0.2,1.8-0.4,2.7-0.5C56.7,43.4,57.7,43.4,58.8,43.3z"/>
		<path class="st1" d="M110,60.5c0.6-0.9,1.2-3.4,2-3.5c4.6-0.4,6.8,0.7,9.4,1.8c1.8,0.7,2.4,3,4,4.3c1.2,1,1.6,0.8,2.4-0.5
			c1.9-3.3,1.9-7.7,3.6-11.1c1.2-2.4,0.2-3.6,0.1-6.4c0-1.3,1.7,0.4,1.3-0.8c-0.3-0.8,0.6-0.7-0.2-0.4c-1.3,0.5-1.5,1.3-2.8,1.8
			c-1.7,0.6-10.5-2.8-4.3-5.8c0.8,1.5,2.7,1.9,3.9,1.3c1.1-0.5,2.2-0.9,3.4-1.3c1.5-0.5,2-0.1,2.7,1.3c2.2,4.5,0.4,8.4-1.6,12.2
			c-1.9,3.6-4.1,7.1-6.1,10.7c-0.6,1.1-1.2,1-2.3,0c-3.2-3-7-4.5-11.5-4.2C112.6,59.8,111.4,60.6,110,60.5z"/>
		<path class="st2" d="M66.4,58.4c8.1,6.3-0.9,5.2-2,5.2c-1.2,0-4.3-1.5-4.8-2.6c-0.7-1.4-0.1-2.4-0.2-3.9c0-0.2,0.2-0.7,0-0.8
			c-0.3-0.2,0.1,4.1-0.2,4.2c-2.3,3.9-0.9,0.6,1.2,5.1c0.8,1.8,0.7,1.6,2.4,2.1c0.4,0.1,1.4,2.1,0.7,2.7c-3.6-0.7-7.2-2.8-7.6-6.6
			c-0.4-3.8,1.1-7.1,3-10.3c0.2-0.4,0.6-0.6,1-0.5c0.5,0.1,0.6,0.6,0.7,1.1c0.1,1.3,0,2.7,0.4,4c0.8,2.3,2.1,2.8,4.1,1.4
			C65.2,59.4,66.2,58.5,66.4,58.4z"/>
		<path class="st1" d="M125.9,40.9c-1.5-1.4-2.1-3.3-3-5c-1.1-2-1.2-2.1-3.4-1.6c-2.5,0.7-5.1,1.2-7.6,2.1c-0.9,0.4-1.6,0.9-2.1,1.7
			c-1.2,1.9-2.4,3.7-3.7,5.5c-0.3,0.4-0.7,1-1.2,1.1c1-1.9,2.3-3.6,3.1-5.3c1.9-4,5.2-4.4,9.3-5.5c1.6-0.4,2.3-0.7,3.7-0.7
			c0.5,0,1,0.1,1.4,0.6C124,35.8,124.9,38.3,125.9,40.9z"/>
		<path class="st6" d="M67.7,13.3c-2.4-0.7-6.4,1.3-8.8,0.4c-1.8-0.6-1.5-1.4-3.3-1.9c-0.8-0.2-1-1.1-1.6-0.8
			c-0.7,0.3-0.2,0.5,0.2,0.9c0.9,0.9,4.2,1.5,3.3,2.2c1.1,0.9,2.4,1,2.7,2.4c0.2,0.8-1,2-0.9,2.9c-1.1-0.1-2-1.2-2.4-2
			c-0.6-1.4-1.5-2.4-2.7-3.3c-0.9-0.7-1.8-1.5-2.5-2.4c-0.8-1.1-0.5-1.9,0.7-2.5c1.4-0.7,2.6-0.3,3.9,0c3.2,0.8,6.4,1.7,9.5,2.8
			C66.5,12.3,67.5,12.7,67.7,13.3z"/>
		<path class="st1" d="M97,55.6c0,1-0.7,1.6-1.3,2.3c-0.5,0.7-1.2,1.3-1.5,2.3c1.3-0.1,2.4-0.8,3.6-0.5c-1.2,1.1-2.6,1-4.2,1.3
			c-0.4,0.1-0.6-0.2-0.4-0.6C94.6,58.7,95.5,57.5,97,55.6z"/>
		<path class="st1" d="M93.5,60.9c3.6-3.6,11.7-2,12.8-1.1c-1.8,0-4.1,0-5.7,0.1C98.4,60.1,94.7,61.3,93.5,60.9z"/>
		<path class="st6" d="M69.7,16c-1-0.5-6.9-2.4-2.9-3.5C68,13,68.2,14.9,69.7,16z"/>
		<path class="st1" d="M106.3,59.8c0.5-0.3,1-3.7,3,0.7C108.5,60.5,107.7,60,106.3,59.8z"/>
		<path class="st5" d="M104.1,65.8c-0.4,0.3-0.4,0.3-0.6,0.4c-0.4,0.4,0.1,0.6,0.2,0.8c0.6,0.7,1.8,0,3.1-0.5c0.2-0.1-0.5,1.1-1,1.5
			c-1,0.8-3.7,3-4.8,2c-0.6-0.5-2.8-2.6-2.4-3.3C99.1,65.7,104.4,65.7,104.1,65.8z"/>
	</g>
	<text transform="matrix(1 0 0 1 -0.7731 150.8942)" class="st6 st8 st9">saveurs saisonnieres</text>
	<text transform="matrix(1 0 0 1 39.8529 170.3747)" class="st6 st10 st11">frais de proximité</text>
</g>
</svg>
