<?xml version="1.0" encoding="utf-8"?>
<!-- Generator: Adobe Illustrator 28.3.0, SVG Export Plug-In . SVG Version: 6.00 Build 0)  -->
<svg version="1.1" id="Calque_1" xmlns="http://www.w3.org/2000/svg" xmlns:xlink="http://www.w3.org/1999/xlink" x="0px" y="0px"
	 viewBox="0 0 100 100" style="enable-background:new 0 0 100 100;" xml:space="preserve">
<style type="text/css">
	.st0{fill:#7A361B;}
	.st1{fill:#741F58;}
	.st2{fill:#E33226;}
	.st3{fill:#69962F;}
	.st4{fill:#E64F2D;}
	.st5{fill:#55752B;}
	.st6{fill:#55742B;}
	.st7{fill:#68942F;}
</style>
<g>
	<path class="st0" d="M49.32,98.93c-8.06-0.29-2.63-0.08-8.06-0.29c-3.15-0.35-6.33-0.6-9.44-1.32c-4.7-1.09-9.26-2.52-13.19-5.43
		c-1.91-1.41-3.22-3.3-4.11-5.55c-1.8-4.53-3.23-9.18-4.64-13.83C9,69.59,8.2,66.65,7.49,63.7c-0.6-2.47-1.02-4.99-1.5-7.48
		c-0.35-1.8,0.48-3.48,2.13-4.33c0.68-0.35,1.32-0.18,1.72,0.41c1.45,2.12,3.75,2.91,5.94,3.85c2.47,1.07,5.09,1.74,7.7,2.28
		c2.05,0.42,4.14,0.73,6.21,1.09c1.99,0.34,2.87,0.5,5.97,0.8c0.9,0.09,0,0,0.84,0.09c6.75,0.49,13.52,0.79,20.26,0.43
		c3.82-0.21,7.68-0.28,11.46-0.97c4.04-0.73,8.14-1.2,12.08-2.39c3.15-0.95,6.32-1.92,8.89-4.13c0.22-0.19,0.44-0.37,0.62-0.59
		c1.08-1.31,2.23-0.72,2.82-0.27c1.31,1.1,1.56,2.5,1.24,4.1c-0.28,1.4-0.46,2.82-0.76,4.21c-0.36,1.64-0.79,3.27-1.22,4.9
		c-0.69,2.59-1.34,5.2-2.14,7.75c-1,3.21-1.87,6.46-3.1,9.6c-0.69,1.77-1.39,3.54-2.21,5.24c-0.65,1.35-1.67,2.46-2.9,3.39
		c-2.32,1.75-4.87,3.01-7.59,3.98c-1.85,0.66-3.74,1.2-5.66,1.61c-2.73,0.57-5.49,0.9-8.28,1.17c-2.41,0.23-4.8,0.21-7.19,0.34
		C51.87,98.82,52.83,98.77,49.32,98.93z M88.85,66.76c0.38-1.52,0.25-0.96,0.38-1.55c0.04-0.2,0.04-0.2,0.07-0.38
		c0.26-1.87,0.11-0.99,0.22-1.69c0.03-0.2-0.23-0.37-0.47-0.25c-0.61,0.25-0.08,0.02-0.61,0.25c-0.71,0.33-6.11,2.06-9.33,2.64
		c-2,0.36-1.99,0.46-2.2,2.48c-0.09,0.86-0.15,1.77-0.28,2.62c-0.17,1.09-0.8,1.62-1.95,1.49c-1.15-0.13-0.8-0.78-0.66-1.6
		c0.25-2,0.25-2,0.36-3c0.07-0.63-0.15-1.04-0.9-0.97c-1.71,0.17-1.71,0.17-3.74,0.46c-2.33,0.22-4.81,0.48-7.24,0.74
		c-2.01,0.22-2.24,0.28-2.33,2.32c-0.01,0.25-0.02,0.5-0.01,0.76c-0.28,4.32-0.38,6.54-0.65,10.2c-0.07,0.75-0.17,1.5-0.31,2.24
		c-0.2,1.08-1.11,0.86-1.81,0.87c-0.81,0.01-0.73-0.65-0.69-1.18c0.08-1,0.19-2.01,0.28-3.01c0.34-3.54,0.72-7.07,0.77-10.63
		c0.01-0.76-0.23-1.12-1.05-1.11c-4.43,0.02-8.86,0.02-13.29,0c-0.82,0-1.07,0.36-1.04,1.12c0.04,1.15-0.02,2.31,0.05,3.46
		c0.06,0.98-0.27,1.33-1.28,1.3c-3.41-0.09-6.79-0.45-10.15-0.99c-2.47-0.39-4.95-0.71-7.4-1.28c-1.87-0.4-4.17-1.47-3.2-0.5
		c2.38,2.01,5.07,2.41,7.73,3.06c1.89,0.47,3.83,0.66,5.76,0.87c2.67,0.3,5.33,0.67,8.01,0.73c4.1,0.1,8.21,0.04,12.31,0.06
		c0.37,0,0.81-0.14,1.05,0.33c0.61,1.15-0.13,2.46-1.42,2.46c-3.13,0-6.27-0.02-9.4-0.03c-1.59-0.01-1.64,0.37-1.47,2.02
		c0.08,1.29,0.08,1.29,0.19,2.07c0.12,0.83-0.17,1.32-1.19,1.24c-3.15-0.21-6.29-0.53-9.42-0.96c-2.12-0.29-4.22-0.67-6.29-1.22
		c-2.09-0.59-5.79-1.76-5.76-1.39c0.01,0.23,0.14,0.48,1.02,0.92c3.6,1.93,7.48,2.97,11.49,3.64c1.56,0.26,3.13,0.32,4.68,0.57
		c4.5,0.72,9.05,0.57,13.57,0.63c5.52,0.07,11.03-0.54,16.53-1.21c0.53-0.04,1.31-0.2,1.37,0.03c0.03,0.62,0.06,0.87,0,1.48
		c-0.06,0.57-0.3,0.76-0.85,0.88c-1.26,0.28-2.54,0.37-3.82,0.52c-3.96,0.47-7.9,1.04-11.9,0.96c-2.34-0.05-4.68-0.01-7.02-0.01
		c-1.18,0-1.52,0.36-1.25,1.53c0.27,1.07,0.27,1.07,0.78,2.69c0.15,0.49-0.17,0.88-0.61,0.86c-2.87-0.19-4.41-0.32-6.93-0.66
		c-3.44-0.6-6.8-1.38-10.13-2.37c-1.27-0.32-2.33-0.9-2.63-0.72c-0.37,0.28,0.3,0.6,1.46,1.42c3.96,2.22,8.54,3.22,13.03,3.88
		c1.76,0.26,3.56,0.2,5.35,0.38c2.78,0.28,5.61,0.07,8.42,0.08c0.63,0,1.05-0.32,1.19-0.9c0.26-0.86,0.57-1.61,0.76-2.47
		c0.41-1.81,0.71-1.98,2.33-1.81c0.59,0.06,0.84,0.22,0.61,0.89c-0.31,0.91-0.47,1.87-0.72,2.81c-0.22,0.8,0.04,1.09,0.89,1.11
		c1.63,0.04,3.21-0.27,4.81-0.44c1.57-0.2,2.79-0.47,4.46-0.75c0.97-0.29,1.41-0.67,1.75-1.53c1.64-4.04,2.43-8.31,3.43-12.52
		c0.36-1.53,0.5-1.7,2.03-1.64c0.69,0.02,0.86,0.16,0.78,0.95c-0.23,1.25-0.38,1.82-0.59,2.95c-0.82,3.15-1.7,6.31-2.62,9.4
		c-0.27,0.69,0.03,0.98,0.73,0.78c0.62-0.18,1.26-0.35,1.83-0.63c3.27-1.62,6.77-2.99,7.97-6.98c0.1-0.35,0.18-0.79,0.14-0.99
		c-0.35-0.2-0.7-0.02-1.11,0.1c-1.67,0.5-3.35,0.97-5.03,1.45c-0.25,0.07-0.4-0.02-0.47-0.28c-0.31-1.16,0.5-2.39,1.72-2.81
		c2.26-0.76,3.28-1.02,4.89-1.6c0.78-0.28,1.64-0.6,2.04-1.47c0.69-1.47,1.01-3.06,1.52-4.58c0.27-0.79-0.17-1.19-0.99-0.97
		c-1.17,0.31-2.33,0.71-3.49,1.05c-2.58,0.74-4.85,1.17-7.29,1.68c-2.03,0.43-4.11,0.68-6.17,0.94c-1.92,0.24-3.84,0.41-5.77,0.58
		c-0.34,0.03-0.74,0.09-0.97-0.3c-0.36-0.63,0.38-2.4,1.08-2.43c1.29-0.05,2.77-0.23,4.05-0.41c3.86-0.55,7.69-1.16,11.51-1.96
		c2.89-0.61,5.67-1.47,8.41-2.53c0.47-0.18,0.96-0.4,1.12-0.93C88.25,68.97,88.54,67.86,88.85,66.76z"/>
	<path class="st1" d="M54.62,46.51c-0.13-0.01-0.27-0.01-0.4-0.02c-0.84-0.7-5.19-0.7-6.05-0.01c-0.13,0.01-0.26,0.02-0.4,0.03
		c-0.95-0.28-1.82,0.31-2.83,0.37c0.26-0.82,0.76-1.28,1.16-1.81c0.42-0.56,0.99-1.04,1-1.83c2.08-2.89,4.17-5.77,6.25-8.66
		c0.39-0.09,0.58-0.42,0.78-0.71c0.97-1.42,1.94-2.85,2.87-4.29c0.41-0.64,0.95-1.03,1.65-1.31c1.91-0.75,3.92-1.13,5.9-1.65
		c1.73-0.45,1.78-0.37,2.66,1.22c0.74,1.33,1.17,2.86,2.34,3.93c0,0,0,0,0,0c0.26,0.93,1.15,1.17,2.44,0.71
		c1.04-0.37,2.1-0.73,3.14-1.09c0.61-0.21,1.08-0.05,1.29,0.58c0.31,0.91,0.7,1.8,0.72,2.8c0.05,2.19-0.74,4.17-1.71,6.04
		c-1.37,2.64-2.94,5.17-4.43,7.75c-0.59,1.02-0.9,1.14-1.84,0.39c-1.19-0.95-2.43-1.74-3.86-2.31c-2.05-0.81-4.15-0.78-6.26-0.55
		c-0.63,0.07-1.44,0.22-1.87,0.91c-0.18,0-0.36,0-0.55,0C56.1,46.34,55.35,46.45,54.62,46.51z"/>
	<path class="st2" d="M22.69,46.04c0.92-1.3,2.25-1.55,3.72-1.44c0.79,0.06,1.58,0.18,2.36,0.2c1.66,0.03,2.45-0.88,2.25-2.51
		c-0.01-0.11-0.04-0.21-0.06-0.32c-0.34-2.33-0.33-2.34,1.97-3.05c0.84-0.26,1.12-0.98,1.19-1.74c0.08-0.98-0.43-1.77-1.32-2.11
		c-1.52-0.59-3.01-1.33-4.66-1.54c-0.44-0.06-0.93-0.29-0.98-0.69c-0.03-0.29,0.47-0.51,0.83-0.7c2.17-1.16,4.42-1.79,6.92-1.49
		c3.28,0.39,5.82,2.02,7.83,4.53c0.81,1.01,1.56,2.07,2.03,3.33c0.92,2.46,0.23,4.62-1.22,6.52c-1.93,2.53-3.95,4.99-6.04,7.4
		c-1.16,1.34-2.21,2.67-3.82,3.44c-1.7,0.81-3.43,0.9-5.3,0.49c-1.92-0.43-3.87-0.74-5.78-1.19c-1-0.23,0.04,0.01-1.82-0.44
		c-1.23-0.39-1.01-0.47-1.35-0.57c-1.28-0.39-2.44-0.84-3.09-2.22c-1.68-3.56-0.49-6.68,1.3-9.74c0.09-0.16,0.24-0.43,0.49-0.28
		c0.11,0.07,0.15,0.31,0.16,0.47c0.05,1.18-0.04,2.36,0.47,3.48c0.41,0.89,1.07,1.33,2.02,1.32C21.63,47.19,22.47,47.12,22.69,46.04
		z"/>
	<path class="st3" d="M68.05,16.73c0.21-0.11,0.41-0.22,0.62-0.33c1.19-0.59,0.89-0.47,2.65-1.13c1.08-0.24,2.15-0.52,3.23-0.77
		c0.67-0.15,0.99-0.71,1.26-1.24c1.52-2.91,2.92-5.88,3.98-9c0.15-0.45,0.37-1.03,0.94-1.07c0.61-0.04,1.07,0.38,1.32,0.93
		c0.33,0.71,0.66,1.42,0.92,2.16c0.52,1.51-0.51,2.6-1.17,3.74c-0.93,1.6-1.85,3.22-2.72,4.85c-0.42,0.79-0.39,1.49,0.07,2.23
		c1.67,2.64,2.23,5.58,2.54,8.66c0.27,2.64,0.14,5.24-0.06,7.85c-0.02,0.31,0.1,0.69-0.27,0.87c-0.37,0.17-0.67-0.02-0.98-0.25
		c-1.25-0.9-1.8-2.23-2.08-3.65c-0.45-2.29-1.66-2.22-3.17-1.59c-0.96,0.4-1.9,0.83-2.88,1.17c-0.76,0.26-1.45,0.23-1.87-0.7
		c-0.57-1.27-1.23-2.49-1.87-3.73c-0.94-1.83-1.78-2.02-3.77-1.54c-2.33,0.56-4.57,1.44-6.93,1.87c-0.65,0.12-1.21,0.08-1.91,0.05
		c-0.42-0.03-0.69-0.04-0.75-0.39c-0.06-0.32,0.21-0.57,0.49-0.77c1.65-1.19,3.26-2.45,4.95-3.59c2.1-1.42,4.11-2.99,6.41-4.1"/>
	<path class="st4" d="M31.76,25.8c-0.02-2.23,1.66-3.56,3.73-2.91c2.35,0.74,4.11-1.44,3.77-3.92c-0.16-1.16,0.14-1.67,1.12-2.15
		c2.29-1.1,4.72-0.79,6.7,0.86c2.06,1.72,3.23,4.03,4.31,6.38c0.69,1.52,1.44,3,2.15,4.51c0.42,0.88,0.48,1.67-0.09,2.49
		c-1.87,2.71-3.72,5.45-5.61,8.15c-0.15,0.21-0.27,0.64-0.7,0.54c-0.25-0.06-0.34-0.29-0.36-0.49c-0.26-2.71-1.98-4.63-3.71-6.44
		c-2.3-2.41-5.21-3.95-8.59-3.97C32.27,28.83,31.85,27.78,31.76,25.8z"/>
	<path class="st5" d="M53.77,52.28c1.23-0.59,2.08-1.59,2.98-2.57c1.74-1.91,4.08-2.12,6.38-1.58c1.94,0.45,3.75,1.39,5.23,2.84
		c0.88,0.86,1.37,1.94,1.7,3.06c0.44,1.51-0.7,2.84-2.56,2.95c-2.83,0.17-5.65,0.5-8.48,0.69c-4.14,0.28-8.27,0.17-12.41,0.26
		c-2.64,0.06-5.24-0.3-7.86-0.43c-1.32-0.07-1.8-1.07-1.12-2.18c2.31-3.77,5.58-6.1,9.98-6.96c1.54-0.3,3.05-0.33,4.59-0.35
		c0.29,0,0.59,0.04,0.85,0.1c0.55,0.12,1.12,0.18,1.29,0.84c0.17,0.69-0.35,1.03-0.76,1.42c-0.37,0.35-0.67,0.6-0.94,0.8
		c-0.16,0.12-0.36,0.25-0.37,0.26c-0.18,0.12-0.32,0.21-0.54,0.35c-0.21,0.13-0.46,0.29-0.76,0.48c-0.18,0-1.04-0.15-1.09,0.33
		c-0.02,0.17-0.26,0.29-0.26,0.43c0,0.27,0.26,0.32,0.47,0.32C51.4,53.33,52.69,53.17,53.77,52.28z"/>
	<path class="st6" d="M25.45,12.12c1.18,0.86,2.17,2.02,3.62,2.48c0.22,0.07,0.44,0.35,0.67,0.06c0.15-0.18,0.13-0.44,0.01-0.61
		c-1.4-1.92-1.53-4.3-2.39-6.41c-0.56-1.36-1.58-2.46-2.78-3.35c-0.47-0.35-1-0.68-0.93-1.34c0.06-0.67,0.6-0.88,1.18-1.09
		c1.02-0.37,2.03-1.26,3.12-0.48c1.72,1.24,3.51,2.46,3.86,4.88c0.2,1.38,1.03,2.59,1.6,3.86c0.59,1.31,1.12,2.63,1.3,4.07
		c0.06,0.45,0.23,0.84,0.57,1.13c0.99,0.84,1.52,1.98,2.06,3.11c0.26,0.54,0.23,1.13,0.05,1.69c-0.33,0.99-0.88,1.2-1.83,0.73
		c-0.29-0.14-0.59-0.29-0.82-0.51c-1.53-1.51-3.32-1.44-5.18-0.83c-0.96,0.32-1.59-0.29-2-0.9c-0.81-1.24-1.83-1.78-3.31-1.77
		c-1.3,0-2.34-0.98-3.64-1.23c-1.04-0.2-2.18-0.07-3.12-0.71c-0.1-0.66-0.89-0.85-1.03-1.47c-0.26-1.12-1.01-1.84-1.86-2.53
		c-0.77-0.63-1.46-1.37-2.16-2.09c-0.29-0.29-0.53-0.69,0.01-0.96c0.5-0.25,1.03-0.59,1.63-0.43c1.44,0.4,2.92,0.56,4.35,1.06
		c1.81,0.63,3.67,1.14,5.51,1.71c0,0,0.01,0.01,0.01,0.01C24.22,11.02,24.66,11.7,25.45,12.12z"/>
	<path class="st7" d="M83.5,45.26c1.07-0.79,1.07-0.79,2.63-1.6c0.89-0.34,1.8-0.63,2.67-1.03c0.69-0.32,1.36-0.42,1.86,0.18
		c0.5,0.6,0.38,1.4,0.08,2.04c-0.36,0.76-0.88,1.4-1.74,1.79c-1.97,0.9-3.42,2.48-4.86,4.04c-0.77,0.84-1.48,1.73-2.36,2.46
		c-1.04,0.77-0.75,0.56-1.53,1.05c-1.46,0.72-3.06,0.94-4.61,1.32c-2.35,0.58-3.84-0.94-3.46-3.31c0.54-3.32,2.12-6.05,4.56-8.3
		c3.7-3.42,7.56-6.64,11.75-9.45c0.8-0.54,1.64-1.02,2.48-1.49c1-0.56,2.88,0.31,3.11,1.4c0.13,0.63-0.42,0.79-0.78,1.01
		c-0.85,0.52-1.74,0.98-2.62,1.45c-3.24,1.75-5.98,4.12-8.45,6.82c-1.08,1.01-1.7,1.87-2.39,2.93c-0.21,0.32-0.49,0.63-0.47,1.06
		c0.02,0.53,0.22,0.81,0.7,0.4"/>
	<path class="st7" d="M17.35,33.68c2.03-0.04,4.08,0.18,5.97,1.19c0.44,0.24,0.91,0.22,1.37,0.16c2.5-0.32,4.71,0.68,6.96,1.52
		c0.21,0.08,0.41,0.18,0.38,0.45c-0.02,0.25-0.23,0.36-0.44,0.4c-0.62,0.12-1.17,0.39-1.64,0.77c-1.25,1-1.23,2.34-0.87,3.73
		c0.26,1.01-0.04,1.42-1.02,1.15c-2.54-0.69-4.81-0.39-6.65,1.69c-0.61,0.69-0.96,0.06-0.99-0.4c-0.09-1.6-0.32-3.23,0.18-4.81
		c0.54-1.69-0.07-2.52-1.86-2.56c-2.46-0.05-4.71,0.8-6.97,1.58c-0.92,0.32-1.4,0.09-1.61-0.86c-0.45-2.06,0.27-3.02,2.63-3.49
		c0.7-0.14,1.41-0.29,2.12-0.37C15.7,33.75,16.49,33.73,17.35,33.68z"/>
	<path class="st1" d="M57.19,47.03c0.43-0.69,0.94-2.68,1.57-2.74c3.55-0.33,5.28,0.57,7.33,1.37c1.43,0.56,1.9,2.36,3.09,3.31
		c0.94,0.75,1.25,0.63,1.84-0.39c1.48-2.58,1.44-6.01,2.81-8.65c0.97-1.87,0.12-2.79,0.07-4.98c-0.02-0.99,1.32,0.28,1.01-0.63
		c-0.22-0.63,0.45-0.55-0.16-0.34c-1.05,0.36-1.14,1.01-2.18,1.38c-1.29,0.46-8.2-2.16-3.37-4.53c0.59,1.14,2.1,1.45,3.02,1.02
		c0.84-0.4,1.73-0.7,2.61-1.01c1.15-0.42,1.59-0.08,2.13,1.02c1.7,3.46,0.35,6.52-1.22,9.51c-1.49,2.82-3.16,5.55-4.77,8.31
		c-0.49,0.83-0.92,0.8-1.8,0c-2.53-2.31-5.44-3.52-8.93-3.24C59.18,46.51,58.26,47.09,57.19,47.03z"/>
	<path class="st2" d="M23.26,45.4c6.29,4.91-0.73,4.06-1.57,4.07c-0.95,0.01-3.36-1.17-3.77-2.05c-0.52-1.12-0.1-1.86-0.15-3.04
		c-0.01-0.16,0.14-0.56,0.03-0.63c-0.25-0.15,0.07,3.2-0.17,3.29c-1.79,3.06-0.73,0.43,0.95,3.99c0.65,1.38,0.57,1.21,1.84,1.6
		c0.33,0.1,1.06,1.64,0.51,2.13c-2.82-0.51-5.6-2.17-5.9-5.14c-0.29-2.97,0.87-5.54,2.36-8c0.19-0.31,0.47-0.49,0.81-0.4
		c0.41,0.1,0.5,0.47,0.51,0.85c0.05,1.04-0.02,2.08,0.32,3.1c0.61,1.8,1.61,2.16,3.16,1.08C22.35,46.16,23.1,45.47,23.26,45.4z"/>
	<path class="st1" d="M69.56,31.78c-1.18-1.07-1.61-2.59-2.34-3.93c-0.88-1.59-0.93-1.67-2.66-1.22c-1.97,0.51-3.98,0.9-5.9,1.65
		c-0.7,0.27-1.23,0.67-1.65,1.31c-0.93,1.45-1.91,2.87-2.87,4.29c-0.2,0.29-0.51,0.8-0.91,0.89c0.81-1.46,1.76-2.77,2.41-4.15
		c1.45-3.1,4.01-3.45,7.2-4.31c1.21-0.31,1.79-0.56,2.89-0.54c0.39,0.01,0.75,0.11,1.06,0.48C68.11,27.85,68.78,29.77,69.56,31.78z"
		/>
	<path class="st6" d="M24.32,10.33c-1.84-0.56-5,0.98-6.81,0.34c-1.42-0.5-1.16-1.08-2.6-1.48c-0.6-0.17-0.77-0.88-1.27-0.63
		c-0.54,0.27-0.14,0.38,0.15,0.68c0.7,0.72,3.28,1.16,2.6,1.73c0.85,0.7,1.86,0.75,2.12,1.87c0.14,0.61-0.77,1.58-0.67,2.24
		c-0.83-0.09-1.58-0.93-1.85-1.58c-0.45-1.07-1.17-1.86-2.08-2.55c-0.72-0.54-1.4-1.13-1.92-1.87c-0.62-0.86-0.36-1.47,0.57-1.94
		c1.05-0.53,2.01-0.23,3.01,0.04c2.49,0.65,4.98,1.3,7.39,2.21C23.35,9.56,24.17,9.86,24.32,10.33z"/>
	<path class="st1" d="M47.11,43.25c-0.01,0.78-0.58,1.26-1,1.83c-0.4,0.53-0.9,1-1.16,1.81c1.01-0.06,1.88-0.65,2.83-0.37
		c-0.94,0.85-2.06,0.75-3.29,0.97c-0.29,0.05-0.49-0.15-0.29-0.47C45.23,45.67,45.95,44.7,47.11,43.25z"/>
	<path class="st1" d="M44.34,47.32c2.83-2.82,9.09-1.52,9.93-0.82c-1.37-0.03-3.22,0.03-4.43,0.11
		C48.18,46.71,45.26,47.69,44.34,47.32z"/>
	<path class="st6" d="M25.87,12.44c-0.79-0.42-5.39-1.84-2.23-2.73C24.56,10.06,24.66,11.58,25.87,12.44z"/>
	<path class="st1" d="M54.3,46.5c0.42-0.22,0.8-2.88,2.35,0.52C56.01,47.03,55.41,46.62,54.3,46.5z"/>
	<path class="st5" d="M52.59,51.2c-0.32,0.21-0.32,0.21-0.43,0.35c-0.28,0.34,0.06,0.5,0.18,0.64c0.44,0.52,1.41,0.03,2.37-0.42
		c0.17-0.08-0.36,0.87-0.75,1.18c-0.8,0.63-2.88,2.35-3.77,1.56c-0.43-0.39-2.18-2-1.89-2.58C48.69,51.11,52.82,51.05,52.59,51.2z"
		/>
</g>
</svg>
