<?xml version="1.0" encoding="utf-8"?>
<!-- Generator: Adobe Illustrator 28.3.0, SVG Export Plug-In . SVG Version: 6.00 Build 0)  -->
<svg version="1.1" id="Calque_1" xmlns="http://www.w3.org/2000/svg" xmlns:xlink="http://www.w3.org/1999/xlink" x="0px" y="0px"
	 viewBox="0 0 100 100" style="enable-background:new 0 0 100 100;" xml:space="preserve">
<style type="text/css">
	.st0{fill:#FFFFFF;}
</style>
<g>
	<path class="st0" d="M50.6,98.4c-8.1-0.3-2.6-0.1-8.1-0.3c-3.2-0.3-6.3-0.6-9.4-1.3c-4.7-1.1-9.3-2.5-13.2-5.4
		c-1.9-1.4-3.2-3.3-4.1-5.6c-1.8-4.5-3.2-9.2-4.6-13.8c-0.9-2.9-1.7-5.9-2.4-8.8c-0.6-2.5-1-5-1.5-7.5c-0.3-1.8,0.5-3.5,2.1-4.3
		c0.7-0.3,1.3-0.2,1.7,0.4c1.4,2.1,3.8,2.9,5.9,3.8c2.5,1.1,5.1,1.7,7.7,2.3c2,0.4,4.1,0.7,6.2,1.1c2,0.3,2.9,0.5,6,0.8
		c0.9,0.1,0,0,0.8,0.1c6.8,0.5,13.5,0.8,20.3,0.4c3.8-0.2,7.7-0.3,11.5-1c4-0.7,8.1-1.2,12.1-2.4c3.2-1,6.3-1.9,8.9-4.1
		c0.2-0.2,0.4-0.4,0.6-0.6c1.1-1.3,2.2-0.7,2.8-0.3c1.3,1.1,1.6,2.5,1.2,4.1c-0.3,1.4-0.5,2.8-0.8,4.2c-0.4,1.6-0.8,3.3-1.2,4.9
		c-0.7,2.6-1.3,5.2-2.1,7.8c-1,3.2-1.9,6.5-3.1,9.6c-0.7,1.8-1.4,3.5-2.2,5.2c-0.7,1.3-1.7,2.5-2.9,3.4c-2.3,1.8-4.9,3-7.6,4
		c-1.8,0.7-3.7,1.2-5.7,1.6c-2.7,0.6-5.5,0.9-8.3,1.2c-2.4,0.2-4.8,0.2-7.2,0.3C53.1,98.3,54.1,98.2,50.6,98.4z M90.1,66.2
		c0.4-1.5,0.2-1,0.4-1.6c0-0.2,0-0.2,0.1-0.4c0.3-1.9,0.1-1,0.2-1.7c0-0.2-0.2-0.4-0.5-0.2c-0.6,0.2-0.1,0-0.6,0.2
		c-0.7,0.3-6.1,2.1-9.3,2.6c-2,0.4-2,0.5-2.2,2.5c-0.1,0.9-0.2,1.8-0.3,2.6c-0.2,1.1-0.8,1.6-1.9,1.5c-1.2-0.1-0.8-0.8-0.7-1.6
		c0.2-2,0.2-2,0.4-3c0.1-0.6-0.2-1-0.9-1C73,66.4,73,66.4,71,66.7c-2.3,0.2-4.8,0.5-7.2,0.7c-2,0.2-2.2,0.3-2.3,2.3
		c0,0.2,0,0.5,0,0.8c-0.3,4.3-0.4,6.5-0.7,10.2c-0.1,0.8-0.2,1.5-0.3,2.2c-0.2,1.1-1.1,0.9-1.8,0.9c-0.8,0-0.7-0.7-0.7-1.2
		c0.1-1,0.2-2,0.3-3C58.6,76.1,59,72.6,59,69c0-0.8-0.2-1.1-1-1.1c-4.4,0-8.9,0-13.3,0c-0.8,0-1.1,0.4-1,1.1c0,1.2,0,2.3,0,3.5
		c0.1,1-0.3,1.3-1.3,1.3c-3.4-0.1-6.8-0.4-10.1-1c-2.5-0.4-4.9-0.7-7.4-1.3C23,71.1,20.7,70,21.6,71c2.4,2,5.1,2.4,7.7,3.1
		c1.9,0.5,3.8,0.7,5.8,0.9c2.7,0.3,5.3,0.7,8,0.7c4.1,0.1,8.2,0,12.3,0.1c0.4,0,0.8-0.1,1,0.3c0.6,1.2-0.1,2.5-1.4,2.5
		c-3.1,0-6.3,0-9.4,0c-1.6,0-1.6,0.4-1.5,2c0.1,1.3,0.1,1.3,0.2,2.1c0.1,0.8-0.2,1.3-1.2,1.2c-3.2-0.2-6.3-0.5-9.4-1
		c-2.1-0.3-4.2-0.7-6.3-1.2c-2.1-0.6-5.8-1.8-5.8-1.4c0,0.2,0.1,0.5,1,0.9c3.6,1.9,7.5,3,11.5,3.6c1.6,0.3,3.1,0.3,4.7,0.6
		c4.5,0.7,9,0.6,13.6,0.6c5.5,0.1,11-0.5,16.5-1.2c0.5,0,1.3-0.2,1.4,0c0,0.6,0.1,0.9,0,1.5c-0.1,0.6-0.3,0.8-0.8,0.9
		c-1.3,0.3-2.5,0.4-3.8,0.5c-4,0.5-7.9,1-11.9,1c-2.3-0.1-4.7,0-7,0c-1.2,0-1.5,0.4-1.2,1.5c0.3,1.1,0.3,1.1,0.8,2.7
		c0.2,0.5-0.2,0.9-0.6,0.9c-2.9-0.2-4.4-0.3-6.9-0.7c-3.4-0.6-6.8-1.4-10.1-2.4c-1.3-0.3-2.3-0.9-2.6-0.7c-0.4,0.3,0.3,0.6,1.5,1.4
		c4,2.2,8.5,3.2,13,3.9c1.8,0.3,3.6,0.2,5.3,0.4c2.8,0.3,5.6,0.1,8.4,0.1c0.6,0,1-0.3,1.2-0.9c0.3-0.9,0.6-1.6,0.8-2.5
		c0.4-1.8,0.7-2,2.3-1.8c0.6,0.1,0.8,0.2,0.6,0.9c-0.3,0.9-0.5,1.9-0.7,2.8c-0.2,0.8,0,1.1,0.9,1.1c1.6,0,3.2-0.3,4.8-0.4
		c1.6-0.2,2.8-0.5,4.5-0.8c1-0.3,1.4-0.7,1.8-1.5c1.6-4,2.4-8.3,3.4-12.5c0.4-1.5,0.5-1.7,2-1.6c0.7,0,0.9,0.2,0.8,0.9
		c-0.2,1.2-0.4,1.8-0.6,2.9c-0.8,3.2-1.7,6.3-2.6,9.4c-0.3,0.7,0,1,0.7,0.8c0.6-0.2,1.3-0.3,1.8-0.6c3.3-1.6,6.8-3,8-7
		c0.1-0.3,0.2-0.8,0.1-1c-0.3-0.2-0.7,0-1.1,0.1c-1.7,0.5-3.3,1-5,1.4c-0.2,0.1-0.4,0-0.5-0.3c-0.3-1.2,0.5-2.4,1.7-2.8
		c2.3-0.8,3.3-1,4.9-1.6c0.8-0.3,1.6-0.6,2-1.5c0.7-1.5,1-3.1,1.5-4.6c0.3-0.8-0.2-1.2-1-1c-1.2,0.3-2.3,0.7-3.5,1.1
		c-2.6,0.7-4.8,1.2-7.3,1.7c-2,0.4-4.1,0.7-6.2,0.9c-1.9,0.2-3.8,0.4-5.8,0.6c-0.3,0-0.7,0.1-1-0.3c-0.4-0.6,0.4-2.4,1.1-2.4
		c1.3-0.1,2.8-0.2,4.1-0.4c3.9-0.6,7.7-1.2,11.5-2c2.9-0.6,5.7-1.5,8.4-2.5c0.5-0.2,1-0.4,1.1-0.9C89.5,68.4,89.8,67.3,90.1,66.2z"
		/>
	<path class="st0" d="M55.9,45.9c-0.1,0-0.3,0-0.4,0c-0.8-0.7-5.2-0.7-6,0c-0.1,0-0.3,0-0.4,0c-1-0.3-1.8,0.3-2.8,0.4
		c0.3-0.8,0.8-1.3,1.2-1.8c0.4-0.6,1-1,1-1.8c2.1-2.9,4.2-5.8,6.2-8.7c0.4-0.1,0.6-0.4,0.8-0.7c1-1.4,1.9-2.9,2.9-4.3
		c0.4-0.6,1-1,1.7-1.3c1.9-0.8,3.9-1.1,5.9-1.6c1.7-0.5,1.8-0.4,2.7,1.2c0.7,1.3,1.2,2.9,2.3,3.9l0,0c0.3,0.9,1.2,1.2,2.4,0.7
		c1-0.4,2.1-0.7,3.1-1.1c0.6-0.2,1.1,0,1.3,0.6c0.3,0.9,0.7,1.8,0.7,2.8c0.1,2.2-0.7,4.2-1.7,6c-1.4,2.6-2.9,5.2-4.4,7.8
		c-0.6,1-0.9,1.1-1.8,0.4c-1.2-1-2.4-1.7-3.9-2.3c-2.1-0.8-4.2-0.8-6.3-0.5c-0.6,0.1-1.4,0.2-1.9,0.9c-0.2,0-0.4,0-0.5,0
		C57.4,45.8,56.6,45.9,55.9,45.9z"/>
	<path class="st0" d="M23.9,45.5c0.9-1.3,2.2-1.5,3.7-1.4c0.8,0.1,1.6,0.2,2.4,0.2c1.7,0,2.4-0.9,2.2-2.5c0-0.1,0-0.2-0.1-0.3
		c-0.3-2.3-0.3-2.3,2-3c0.8-0.3,1.1-1,1.2-1.7c0.1-1-0.4-1.8-1.3-2.1c-1.5-0.6-3-1.3-4.7-1.5c-0.4-0.1-0.9-0.3-1-0.7
		c0-0.3,0.5-0.5,0.8-0.7c2.2-1.2,4.4-1.8,6.9-1.5c3.3,0.4,5.8,2,7.8,4.5c0.8,1,1.6,2.1,2,3.3c0.9,2.5,0.2,4.6-1.2,6.5
		c-1.9,2.5-4,5-6,7.4c-1.2,1.3-2.2,2.7-3.8,3.4c-1.7,0.8-3.4,0.9-5.3,0.5c-1.9-0.4-3.9-0.7-5.8-1.2c-1-0.2,0,0-1.8-0.4
		c-1.2-0.4-1-0.5-1.4-0.6c-1.3-0.4-2.4-0.8-3.1-2.2c-1.7-3.6-0.5-6.7,1.3-9.7c0.1-0.2,0.2-0.4,0.5-0.3c0.1,0.1,0.1,0.3,0.2,0.5
		c0,1.2,0,2.4,0.5,3.5c0.4,0.9,1.1,1.3,2,1.3C22.9,46.6,23.7,46.6,23.9,45.5z"/>
	<path class="st0" d="M69.3,16.2c0.2-0.1,0.4-0.2,0.6-0.3c1.2-0.6,0.9-0.5,2.7-1.1c1.1-0.2,2.2-0.5,3.2-0.8c0.7-0.1,1-0.7,1.3-1.2
		c1.5-2.9,2.9-5.9,4-9c0.2-0.5,0.4-1,0.9-1.1c0.6,0,1.1,0.4,1.3,0.9C83.6,4.3,84,5,84.2,5.7c0.5,1.5-0.5,2.6-1.2,3.7
		c-0.9,1.6-1.8,3.2-2.7,4.8c-0.4,0.8-0.4,1.5,0.1,2.2c1.7,2.6,2.2,5.6,2.5,8.7c0.3,2.6,0.1,5.2-0.1,7.9c0,0.3,0.1,0.7-0.3,0.9
		c-0.4,0.2-0.7,0-1-0.2c-1.2-0.9-1.8-2.2-2.1-3.7c-0.4-2.3-1.7-2.2-3.2-1.6c-1,0.4-1.9,0.8-2.9,1.2c-0.8,0.3-1.4,0.2-1.9-0.7
		c-0.6-1.3-1.2-2.5-1.9-3.7c-0.9-1.8-1.8-2-3.8-1.5c-2.3,0.6-4.6,1.4-6.9,1.9c-0.7,0.1-1.2,0.1-1.9,0c-0.4,0-0.7,0-0.8-0.4
		c-0.1-0.3,0.2-0.6,0.5-0.8c1.7-1.2,3.3-2.5,5-3.6c2.1-1.4,4.1-3,6.4-4.1"/>
	<path class="st0" d="M33,25.2c0-2.2,1.7-3.6,3.7-2.9c2.3,0.7,4.1-1.4,3.8-3.9c-0.2-1.2,0.1-1.7,1.1-2.1c2.3-1.1,4.7-0.8,6.7,0.9
		c2.1,1.7,3.2,4,4.3,6.4c0.7,1.5,1.4,3,2.2,4.5c0.4,0.9,0.5,1.7-0.1,2.5c-1.9,2.7-3.7,5.5-5.6,8.1c-0.2,0.2-0.3,0.6-0.7,0.5
		c-0.2-0.1-0.3-0.3-0.4-0.5c-0.3-2.7-2-4.6-3.7-6.4c-2.3-2.4-5.2-4-8.6-4C33.5,28.3,33.1,27.2,33,25.2z"/>
	<path class="st0" d="M55,51.7c1.2-0.6,2.1-1.6,3-2.6c1.7-1.9,4.1-2.1,6.4-1.6c1.9,0.5,3.8,1.4,5.2,2.8c0.9,0.9,1.4,1.9,1.7,3.1
		c0.4,1.5-0.7,2.8-2.6,3c-2.8,0.2-5.7,0.5-8.5,0.7c-4.1,0.3-8.3,0.2-12.4,0.3c-2.6,0.1-5.2-0.3-7.9-0.4c-1.3-0.1-1.8-1.1-1.1-2.2
		c2.3-3.8,5.6-6.1,10-7c1.5-0.3,3-0.3,4.6-0.3c0.3,0,0.6,0,0.8,0.1c0.5,0.1,1.1,0.2,1.3,0.8c0.2,0.7-0.3,1-0.8,1.4
		c-0.4,0.3-0.7,0.6-0.9,0.8c-0.2,0.1-0.4,0.2-0.4,0.3c-0.2,0.1-0.3,0.2-0.5,0.3c-0.2,0.1-0.5,0.3-0.8,0.5c-0.2,0-1-0.2-1.1,0.3
		c0,0.2-0.3,0.3-0.3,0.4c0,0.3,0.3,0.3,0.5,0.3C52.7,52.8,53.9,52.6,55,51.7z"/>
	<path class="st0" d="M26.7,11.6c1.2,0.9,2.2,2,3.6,2.5c0.2,0.1,0.4,0.4,0.7,0.1c0.1-0.2,0.1-0.4,0-0.6c-1.4-1.9-1.5-4.3-2.4-6.4
		c-0.6-1.4-1.6-2.5-2.8-3.3c-0.5-0.3-1-0.7-0.9-1.3c0.1-0.7,0.6-0.9,1.2-1.1c1-0.4,2-1.3,3.1-0.5c1.7,1.2,3.5,2.5,3.9,4.9
		c0.2,1.4,1,2.6,1.6,3.9c0.6,1.3,1.1,2.6,1.3,4.1c0.1,0.4,0.2,0.8,0.6,1.1c1,0.8,1.5,2,2.1,3.1c0.3,0.5,0.2,1.1,0,1.7
		c-0.3,1-0.9,1.2-1.8,0.7c-0.3-0.1-0.6-0.3-0.8-0.5c-1.5-1.5-3.3-1.4-5.2-0.8c-1,0.3-1.6-0.3-2-0.9c-0.8-1.2-1.8-1.8-3.3-1.8
		c-1.3,0-2.3-1-3.6-1.2c-1-0.2-2.2-0.1-3.1-0.7c-0.1-0.7-0.9-0.9-1-1.5c-0.3-1.1-1-1.8-1.9-2.5c-0.8-0.6-1.5-1.4-2.2-2.1
		c-0.3-0.3-0.5-0.7,0-1c0.5-0.2,1-0.6,1.6-0.4c1.4,0.4,2.9,0.6,4.4,1.1c1.8,0.6,3.7,1.1,5.5,1.7l0,0C25.5,10.5,25.9,11.1,26.7,11.6z
		"/>
	<path class="st0" d="M84.8,44.7c1.1-0.8,1.1-0.8,2.6-1.6c0.9-0.3,1.8-0.6,2.7-1c0.7-0.3,1.4-0.4,1.9,0.2s0.4,1.4,0.1,2
		c-0.4,0.8-0.9,1.4-1.7,1.8c-2,0.9-3.4,2.5-4.9,4c-0.8,0.8-1.5,1.7-2.4,2.5c-1,0.8-0.8,0.6-1.5,1c-1.5,0.7-3.1,0.9-4.6,1.3
		c-2.3,0.6-3.8-0.9-3.5-3.3c0.5-3.3,2.1-6,4.6-8.3c3.7-3.4,7.6-6.6,11.8-9.5c0.8-0.5,1.6-1,2.5-1.5c1-0.6,2.9,0.3,3.1,1.4
		c0.1,0.6-0.4,0.8-0.8,1c-0.8,0.5-1.7,1-2.6,1.5c-3.2,1.8-6,4.1-8.4,6.8c-1.1,1-1.7,1.9-2.4,2.9c-0.2,0.3-0.5,0.6-0.5,1.1
		c0,0.5,0.2,0.8,0.7,0.4"/>
	<path class="st0" d="M18.6,33.1c2,0,4.1,0.2,6,1.2c0.4,0.2,0.9,0.2,1.4,0.2c2.5-0.3,4.7,0.7,7,1.5c0.2,0.1,0.4,0.2,0.4,0.5
		c0,0.2-0.2,0.4-0.4,0.4c-0.6,0.1-1.2,0.4-1.6,0.8c-1.2,1-1.2,2.3-0.9,3.7c0.3,1,0,1.4-1,1.2c-2.5-0.7-4.8-0.4-6.6,1.7
		c-0.6,0.7-1,0.1-1-0.4c-0.1-1.6-0.3-3.2,0.2-4.8c0.5-1.7-0.1-2.5-1.9-2.6c-2.5,0-4.7,0.8-7,1.6c-0.9,0.3-1.4,0.1-1.6-0.9
		c-0.4-2.1,0.3-3,2.6-3.5c0.7-0.1,1.4-0.3,2.1-0.4C17,33.2,17.7,33.2,18.6,33.1z"/>
	<path class="st0" d="M58.4,46.5c0.4-0.7,0.9-2.7,1.6-2.7c3.5-0.3,5.3,0.6,7.3,1.4c1.4,0.6,1.9,2.4,3.1,3.3c0.9,0.8,1.2,0.6,1.8-0.4
		c1.5-2.6,1.4-6,2.8-8.6c1-1.9,0.1-2.8,0.1-5c0-1,1.3,0.3,1-0.6c-0.2-0.6,0.4-0.5-0.2-0.3c-1.1,0.4-1.1,1-2.2,1.4
		c-1.3,0.5-8.2-2.2-3.4-4.5c0.6,1.1,2.1,1.4,3,1c0.8-0.4,1.7-0.7,2.6-1c1.2-0.4,1.6-0.1,2.1,1c1.7,3.5,0.3,6.5-1.2,9.5
		c-1.5,2.8-3.2,5.5-4.8,8.3c-0.5,0.8-0.9,0.8-1.8,0c-2.5-2.3-5.4-3.5-8.9-3.2C60.4,45.9,59.5,46.5,58.4,46.5z"/>
	<path class="st0" d="M24.5,44.8c6.3,4.9-0.7,4.1-1.6,4.1c-1,0-3.4-1.2-3.8-2c-0.5-1.1-0.1-1.9-0.1-3c0-0.2,0.1-0.6,0-0.6
		c-0.2-0.2,0.1,3.2-0.2,3.3c-1.8,3.1-0.7,0.4,1,4c0.6,1.4,0.6,1.2,1.8,1.6c0.3,0.1,1.1,1.6,0.5,2.1c-2.8-0.5-5.6-2.2-5.9-5.1
		c-0.3-3,0.9-5.5,2.4-8c0.2-0.3,0.5-0.5,0.8-0.4c0.4,0.1,0.5,0.5,0.5,0.8c0,1,0,2.1,0.3,3.1c0.6,1.8,1.6,2.2,3.2,1.1
		C23.6,45.6,24.4,44.9,24.5,44.8z"/>
	<path class="st0" d="M70.8,31.2c-1.2-1.1-1.6-2.6-2.3-3.9c-0.9-1.6-0.9-1.7-2.7-1.2c-2,0.5-4,0.9-5.9,1.6c-0.7,0.3-1.2,0.7-1.7,1.3
		c-0.9,1.5-1.9,2.9-2.9,4.3c-0.2,0.3-0.5,0.8-0.9,0.9c0.8-1.5,1.8-2.8,2.4-4.2c1.5-3.1,4-3.5,7.2-4.3c1.2-0.3,1.8-0.6,2.9-0.5
		c0.4,0,0.8,0.1,1.1,0.5C69.4,27.3,70,29.2,70.8,31.2z"/>
	<path class="st0" d="M25.6,9.8c-1.8-0.6-5,1-6.8,0.3c-1.4-0.5-1.2-1.1-2.6-1.5c-0.6-0.2-0.8-0.9-1.3-0.6c-0.5,0.3-0.1,0.4,0.1,0.7
		c0.7,0.7,3.3,1.2,2.6,1.7c0.9,0.7,1.9,0.8,2.1,1.9c0.1,0.6-0.8,1.6-0.7,2.2c-0.8-0.1-1.6-0.9-1.9-1.6c-0.5-1.1-1.2-1.9-2.1-2.6
		c-0.7-0.5-1.4-1.1-1.9-1.9c-0.6-0.9-0.4-1.5,0.6-1.9c1.1-0.5,2-0.2,3,0c2.5,0.7,5,1.3,7.4,2.2C24.6,9,25.4,9.3,25.6,9.8z"/>
	<path class="st0" d="M48.4,42.7c0,0.8-0.6,1.3-1,1.8c-0.4,0.5-0.9,1-1.2,1.8c1-0.1,1.9-0.7,2.8-0.4c-0.9,0.8-2.1,0.8-3.3,1
		c-0.3,0-0.5-0.2-0.3-0.5C46.5,45.1,47.2,44.1,48.4,42.7z"/>
	<path class="st0" d="M45.6,46.8c2.8-2.8,9.1-1.5,9.9-0.8c-1.4,0-3.2,0-4.4,0.1C49.4,46.1,46.5,47.1,45.6,46.8z"/>
	<path class="st0" d="M27.1,11.9c-0.8-0.4-5.4-1.8-2.2-2.7C25.8,9.5,25.9,11,27.1,11.9z"/>
	<path class="st0" d="M55.6,45.9c0.4-0.2,0.8-2.9,2.3,0.5C57.3,46.5,56.7,46.1,55.6,45.9z"/>
	<path class="st0" d="M53.8,50.6c-0.3,0.2-0.3,0.2-0.4,0.3c-0.3,0.3,0.1,0.5,0.2,0.6c0.4,0.5,1.4,0,2.4-0.4c0.2-0.1-0.4,0.9-0.8,1.2
		c-0.8,0.6-2.9,2.3-3.8,1.6c-0.4-0.4-2.2-2-1.9-2.6C49.9,50.5,54.1,50.5,53.8,50.6z"/>
</g>
</svg>
