<?xml version="1.0" encoding="utf-8"?>
<!-- Generator: Adobe Illustrator 28.3.0, SVG Export Plug-In . SVG Version: 6.00 Build 0)  -->
<svg version="1.1" id="Calque_1" xmlns="http://www.w3.org/2000/svg" xmlns:xlink="http://www.w3.org/1999/xlink" x="0px" y="0px"
	 viewBox="0 0 152 152" style="enable-background:new 0 0 152 152;" xml:space="preserve">
<style type="text/css">
	.st0{fill:#8B1D1D;}
	.st1{fill:#FFFFFF;}
</style>
<g>
	<g>
		<circle class="st0" cx="76" cy="76" r="75.9"/>
	</g>
	<path class="st1" d="M82.6,16.4c-2.7,5.7-17.5,31.2-38.7,67.3c-1,1.9-1,3.7-0.1,4.5c0.2,0.2,0.5,0.3,0.9,0.4
		c8.4,0,16.8-0.1,25.2-0.1c-2.3,15.4-4.6,30.7-6.9,46.1c0.4,1.6,1.4,5,2.8,5c0.9,0,1.5-1.4,3.5-4.8c1.1-1.9,2.3-3.7,3.4-5.6
		c2.2-4.1,15.9-28.4,35.1-62.2c0.9-1.4,1.1-1.5,1-2.9c-0.1-0.9-1.4-1.3-2.3-1.2c-8.2-0.2-16.8,0.8-25,0.6
		c2.4-15.2,5.3-31.6,7.8-46.8c-0.6-1.7-1.7-4-3.1-4.1C84.4,12.4,83,15.6,82.6,16.4z"/>
</g>
</svg>
