<?xml version="1.0" encoding="utf-8"?>
<!-- Generator: Adobe Illustrator 28.3.0, SVG Export Plug-In . SVG Version: 6.00 Build 0)  -->
<svg version="1.1" id="Calque_1" xmlns="http://www.w3.org/2000/svg" xmlns:xlink="http://www.w3.org/1999/xlink" x="0px" y="0px"
	 viewBox="0 0 152 152" style="enable-background:new 0 0 152 152;" xml:space="preserve">
<style type="text/css">
	.st0{fill:#C0CA32;}
	.st1{fill:#FFFFFF;}
</style>
<g>
	<circle class="st0" cx="76.1" cy="75.9" r="75.9"/>
	<g>
		<g>
			<path class="st1" d="M35.7,72.9c-0.9,1-1.9,2-2.8,3c-1.6,2.2-2.6,4.7-3.5,7.3c-0.9,5.1-0.4,9.9,2.2,14.5c1.1,2,2.7,3.5,4.2,5.2
				l0,0c2.1,1.5,4.3,2.8,6.7,3.7c2.2,0.5,4.5,0.8,6.7,1c2.3-0.3,4.5-0.7,6.7-1.3c4.7-2.1,8.2-5.3,10.5-10c0.4-1.1,0.8-2.2,1.1-3.3
				c0.2-1.2,0.9-1.4,1.9-1.1c2.3,0,4.5,0,6.8,0c2.2,0,4.5,0,6.7,0c1-0.2,1.7,0,1.9,1.2c0.2,1.1,0.7,2.1,1,3.2c2.3,4.7,5.8,8,10.6,10
				c2.2,0.6,4.5,1.1,6.8,1.4c2.3,0,4.5-0.5,6.7-1c2.3-1,4.5-2.1,6.4-3.7c0,0,0.1-0.1,0.1-0.1c2-1.9,3.6-4.1,5.1-6.4
				c2-5.1,2.6-10.2,0.5-15.4c-0.6-1.4-1.3-2.8-2-4.2c-1.3-1.4-2.7-2.8-4-4.2c-1.5-0.9-2.9-1.8-4.4-2.8c-0.8-0.3-1.5-0.6-2.3-0.8
				c-2.1-0.3-4.1-0.6-6.2-0.9c-1.1-0.1-2.4,0.8-3-0.8c-0.5-1.5-1.3-2.9-1.5-4.6c-1-2-1.7-4.1-2.3-6.2c-1-2.4-1.9-4.9-2.9-7.3
				c-0.8-1.7-2.2-2.9-3.8-3.8c-2.2-0.9-4.5-0.6-6.7-0.8c-2.2,0-4.5,0.1-6.7,0.1c0,1.5-0.1,3-0.1,4.4c0,0.4,0.1,0.8,0.1,1.1
				c-0.3,1.9,0.5,2.5,2.3,2.3c1.4-0.1,2.8,0.1,4.2,0.1l0.2-0.1l0.1,0.1c3.6-0.4,3.6-0.4,4.5,3.2c0.9,1.9,1.6,3.9,2.2,5.9
				c0.6,1.7,1.2,3.4,2,5c0.6,1.2,0.3,1.6-1,1.6c-4.8-0.1-9.6,0-14.4-0.1c-3.4,0-3.4-0.1-4.1-3.9c1.4,0,2.7,0,4,0
				c0-0.6,0.1-1.1,0.1-1.7c-0.1-2,0.6-4.7-0.4-5.8c-1.2-1.3-3.9-0.3-6-0.4c-0.1,0-0.3-0.1-0.4-0.1c-2.2,0-4.5,0-6.7,0
				c-2,0-4,0.1-6,0.1c-0.1,0.3-0.2,0.6-0.3,0.9c0,0.8,0,1.5,0,2.3c0,0.4,0,0.9,0,1.3c0,0.6,0,1.2,0,1.8c0,0.6,0.1,1.2,0.1,1.7
				c2.1,0,4.1,0,6.2,0.1c0.5-0.2,0.8,0.1,0.9,0.6c0.5,1.6,1.1,3.2,1.6,4.7c0.8,2.1,1.6,4.2,2.4,6.3c0.8,2,1.6,4,2.2,6.1
				c0.2,0.5,1.3,1.4-0.1,1.7c-0.9,0.2-1.9,0.2-2.2-1.2c-0.5-2.2-1.7-4.1-2.6-6.1c-0.9-1.1-1.8-2.1-2.7-3.2c-2-1.6-4.1-2.8-6.3-4l0,0
				c-1.8-0.4-3.5-0.7-5.3-1.1c-2.7-0.1-5.5,0-8.1,0.9c-0.3,0.1-0.5,0.1-0.8,0.2C39.6,70.4,37.6,71.7,35.7,72.9z M97.1,82.7
				c1.1,1.9,1.6,4.1,2.3,6.2c1.7,0.5,2.9-0.6,4.3-1.2c3-1.4,3-1.3,2.3-4.4c-1.2-2.3-1.9-4.8-2.8-7.3c2.5-0.1,4.6,0.5,6.4,1.8
				c2.1,1.1,3.5,2.7,4.4,4.9c1.2,2.1,1.4,4.4,0.9,6.7c0.1,5.1-6.7,10.9-12.1,9.9c-5.5,0-10-3.9-10.8-9.3c-0.7-2.6-0.3-5,0.9-7.3
				c0.5-1.6,1.4-2.7,2.9-3.8C96.4,80.3,96.8,81.5,97.1,82.7z M49.1,99.3c-2.5,0.3-4.8-0.2-6.8-1.7c-3.1-1.8-5-4.5-5.3-8.2
				c-0.4-2.4-0.1-4.6,1-6.8c0.8-1.9,2-3.5,3.8-4.5c2.8-1.9,5.8-2.8,9.1-1.8c1.9,0.1,3.5,1,4.9,2.3c1.5,1,2.4,2.4,3.2,3.9
				c0.6,1.1,0.3,1.4-0.9,1.4c-3.2,0-6.4,0-9.6,0.1c0,1.8-0.1,3.6-0.1,5.5c0.4,0.7-0.4,1.8,0.6,2.3c2.2,0,4.5,0,6.7,0
				c1.2,0,2.3,0,3.5,0C58.2,96.1,53.9,99.3,49.1,99.3z M78.4,82.6c-0.8-2.2-1.6-4.4-2.5-6.7c2.5,0,4.7,0,6.8,0c1.6,0,3.1,0,4.9,0
				c-1.1,1.8-2.3,3.3-2.6,5.1c-0.4,2.5-1.8,3.1-4,2.7C80.1,83.6,78.7,84.4,78.4,82.6z"/>
		</g>
	</g>
</g>
</svg>
