<?xml version="1.0" encoding="utf-8"?>
<!-- Generator: Adobe Illustrator 28.3.0, SVG Export Plug-In . SVG Version: 6.00 Build 0)  -->
<svg version="1.1" id="Calque_1" xmlns="http://www.w3.org/2000/svg" xmlns:xlink="http://www.w3.org/1999/xlink" x="0px" y="0px"
	 viewBox="0 0 152 152" style="enable-background:new 0 0 152 152;" xml:space="preserve">
<style type="text/css">
	.st0{fill:#E2DF07;}
	.st1{fill:#FFFEFE;}
</style>
<g>
	<g>
		<circle class="st0" cx="76.1" cy="76" r="75.9"/>
	</g>
	<path class="st1" d="M101,65.9c-0.3-10.6-5.1-18.6-14.8-22.9c-8.8-4-17.7-3.1-25.5,2.7c-8.3,6.3-11.7,14.9-9.6,25.2
		c2.8,13.8,11,24.9,19.5,35.7c5.2,6.7,5.4,6.6,10.7-0.2c8.2-10.6,16.1-21.5,19.3-34.9c0.2-0.7,0.4-1.4,0.5-2.1
		C101.1,68.2,101,67,101,65.9z M75.9,74.9c-4.6,0.2-8.9-3.8-9-8.6c-0.2-5,3.8-9.3,8.8-9.4c4.7-0.1,8.9,3.9,9.1,8.7
		C84.9,70.6,81.1,74.6,75.9,74.9z"/>
</g>
</svg>
